DBRep_DrawableShape

CASCADE Topology V3, (c) Open Cascade
Locations 39
1
              1               0               0           -17.5 
              0               1               0            22.5 
              0               0               1               0 
2  1 -1 0
1
              1               0               0            17.5 
              0               1               0           -22.5 
              0               0               1           11.29 
1
              1               0               0               0 
              0               1               0               0 
              0               0               1            9.96 
2  3 1 4 1 0
2  4 -1 3 -1 0
1
              1               0               0              -0 
              0               1               0              -0 
              0               0               1               0 
1
              1               0               0            17.5 
              0               1               0           -22.5 
              0               0               1               0 
1
              1              -0               0              -0 
              0               1               0               0 
             -0               0               1              -0 
1
              1               0               0               0 
              0               1               0               0 
              0               0               1               0 
2  7 1 8 1 9 1 1 1 10 1 0
2  1 1 10 -1 1 -1 9 -1 8 -1 7 -1 0
1
              1               0               0              -0 
              0               1               0 -25.9662915213991 
              0               0               1 9.76008732674641 
1
              1               0               0              -0 
              0               1               0 -25.6948342560348 
              0               0               1 9.65805324870905 
1
              1               0               0              -0 
              0               1               0 -101.496935460177 
              0               0               1 38.1501899365218 
2  1 -1 13 1 14 1 15 1 0
2  15 -1 14 -1 13 -1 1 1 0
2  15 -1 0
1
              1               0               0               0 
              0               1               0 -17.7996689927938 
              0               0               1 -47.3552519130347 
2  7 1 8 1 9 1 1 1 10 1 1 -1 13 1 14 1 19 1 15 1 0
2  15 -1 19 -1 14 -1 13 -1 1 1 10 -1 1 -1 9 -1 8 -1 7 -1 0
2  7 1 8 1 9 1 1 1 10 1 1 -1 19 1 0
2  19 -1 1 1 10 -1 1 -1 9 -1 8 -1 7 -1 0
2  7 1 8 1 9 1 1 1 10 1 1 -1 0
2  1 -1 13 1 14 1 0
2  7 1 8 1 9 1 1 1 10 1 1 -1 13 1 14 1 19 1 0
1
              1               0               0               0 
              0               1               0               0 
              0               0               1               0 
2  7 1 8 1 9 1 1 1 27 1 1 -1 0
1
              1               0               0              -0 
              0               1               0              -0 
              0               0               1               0 
1
              1               0               0              18 
              0               1               0             -38 
              0               0               1               0 
1
              1              -0               0              -0 
              0               1               0               0 
             -0               0               1           21.25 
2  29 1 30 1 31 1 0
2  31 -1 30 -1 29 -1 0
1
              1               0               0               0 
              0               1               0 32.1723662433485 
              0               0               1 12.0927974556696 
1
              1               0               0               0 
              0               1               0 65.2527102363638 
              0               0               1 24.5268813102917 
2  7 1 8 1 9 1 1 1 10 1 1 -1 34 1 35 1 0
2  35 -1 34 -1 1 1 10 -1 1 -1 9 -1 8 -1 7 -1 0
2  1 -1 34 1 35 1 0
2  35 -1 34 -1 1 1 0
Curve2ds 16
7 0 0  1 2 2  -21.842188633379301 0  21.842188633379301 0 
 -18.256367988545566 2 18.256367988545566 2
1 21.842188633379301 0 0 1 
1 -16.842188633379301 0 0 1 
1 0 1 1 0 
1 -21.842188633379301 0 0 1 
1 16.842188633379301 0 0 1 
7 0 0  1 2 2  -16.842188633379301 0  16.842188633379301 0 
 -13.256367988545565 2 13.256367988545565 2
1 0 1 1 0 
1 -16.842188633379301 0 0 1 
1 21.842188633379301 0 0 1 
7 0 0  1 2 2  -21.842188633379301 0  21.842188633379301 0 
 -18.256367988545566 2 18.256367988545566 2
1 0 1 1 0 
1 -21.842188633379301 0 0 1 
1 16.842188633379301 0 0 1 
7 0 0  1 2 2  -16.842188633379301 0  16.842188633379301 0 
 -13.256367988545565 2 13.256367988545565 2
1 0 1 1 0 
Curves 55
1 13.256367988545566 0 11.289999999999999 -0 -1 -0 
7 0 0  1 2 2  30.756367988545566 -40.756367988545563 11.289999999999999  34.342188633379301 -44.342188633379301 21.25 
 0 2 1 2
1 16.842188633379301 0 0 -0 -1 -0 
7 0 0  1 2 2  30.756367988545566 -4.2436320114544337 11.289999999999999  34.342188633379301 -0.65781136662069883 21.25 
 0 2 1 2
1 0 18.256367988545566 11.289999999999999 1 -0 -0 
1 0 21.842188633379301 0 1 -0 -0 
7 0 0  1 2 2  4.2436320114544337 -4.2436320114544337 11.289999999999999  0.65781136662069883 -0.65781136662069883 21.25 
 0 2 1 2
1 -13.256367988545566 0 11.289999999999999 -0 1 -0 
1 -16.842188633379301 0 0 -0 1 -0 
7 0 0  1 2 2  4.2436320114544372 -40.756367988545563 11.289999999999999  0.65781136662069883 -44.342188633379301 21.25 
 0 2 1 2
8 0 12.78596595088856
1 -17.5 22.5 0 0.33189764682264961 -0.33189764682264961 0.88299937942626872 
1 -17.5 0 0 -0 1 -0 
8 0 12.78596595088856
1 -17.5 -22.5 0 0.33189764682264961 0.33189764682264961 0.88299937942626872 
8 0 163.62
1 0 -198.15806123761084 57.56833051197723 -0 0.93605953573897349 -0.35184164840470139 
8 0 12.78596595088856
1 -17.5 -22.5 0 0.33189764682264961 0.33189764682264961 0.88299937942626872 
8 0 163.62000000000003
1 4.2436320114544337 -193.91442922615641 68.858330511977229 -0 0.93605953573897349 -0.35184164840470122 
8 0 163.62000000000003
1 30.756367988545566 -193.91442922615641 68.858330511977229 -0 0.93605953573897349 -0.35184164840470122 
1 0 -18.256367988545566 11.289999999999999 -1 -0 -0 
1 0 -18.256367988545566 11.289999999999999 -1 -0 -0 
8 0 163.62
1 35 -45 0 -0 -0.93605953573897349 0.35184164840470139 
8 0 12.78596595088856
1 17.5 -22.5 0 -0.33189764682264961 0.33189764682264961 0.88299937942626872 
8 0 12.78596595088856
1 17.5 -22.5 0 -0.33189764682264961 0.33189764682264961 0.88299937942626872 
1 35 -45 0 -0 -0.35184164840470133 -0.93605953573897349 
8 0 163.62
1 35 -62.799668992793841 -47.355251913034671 -0 -0.93605953573897349 0.35184164840470133 
1 35 -96.661125777433938 19.418140575455464 -0 -0.35184164840470133 -0.93605953573897349 
1 0 -22.5 0 -1 -0 -0 
8 0 163.62
1 0 -215.95773023040468 10.213078598942555 -0 0.93605953573897349 -0.35184164840470133 
1 0 -22.5 0 -1 -0 -0 
1 0 -45 0 -0 -0.35184164840470133 -0.93605953573897349 
1 0 -22.5 0 -1 -0 -0 
1 0 -96.661125777433938 19.418140575455464 -0 -0.35184164840470133 -0.93605953573897349 
1 17.5 0 0 -0 1 -0 
1 0 22.5 0 -1 -0 -0 
1 23.25 -40 0 -1 -0 -0 
1 5 -31.25 0 -0 1 -0 
1 23.25 -36 0 -1 -0 -0 
1 29 -31.25 0 -0 1 -0 
1 11 0 0 -0 1 -0 
1 29 -36 21.25 0 -0 -1 
1 29 -40 21.25 0 -0 -1 
1 -1 2 0 -1 -0 -0 
1 5 -36 21.25 0 -0 -1 
1 -13 0 0 -0 1 -0 
1 5 -40 21.25 0 -0 -1 
1 -1 -2 0 -1 -0 -0 
8 0 104.07999999999998
1 35 97.425076479712345 36.619678765961304 -0 -0.93605953573897349 -0.35184164840470128 
1 0 22.5 0 -1 -0 -0 
8 0 104.07999999999998
1 0 97.425076479712345 36.619678765961304 -0 -0.93605953573897349 -0.35184164840470128 
8 0 12.78596595088856
1 -17.5 22.5 0 0.33189764682264961 -0.33189764682264961 0.88299937942626872 
8 0 12.78596595088856
1 17.5 22.5 0 -0.33189764682264961 -0.33189764682264961 0.88299937942626872 
1 0 18.256367988545566 11.289999999999999 1 -0 -0 
8 0 104.07999999999998
1 30.756367988545566 -4.2436320114544337 11.290000000000001 -0 0.93605953573897349 0.35184164840470128 
8 0 12.78596595088856
1 17.5 22.5 0 -0.33189764682264961 -0.33189764682264961 0.88299937942626872 
8 0 104.07999999999998
1 4.2436320114544337 -4.2436320114544337 11.290000000000001 -0 0.93605953573897349 0.35184164840470128 
1 0 -21.842188633379301 0 -1 -0 -0 
Polygon3D 0
PolygonOnTriangulations 0
Surfaces 25
9 0 0 0 0 1 1 2 2 2 2 30.756367988545566 -4.2436320114544337 11.289999999999999  34.342188633379301 -0.65781136662069883 21.25  
30.756367988545566 -40.756367988545563 11.289999999999999  34.342188633379301 -44.342188633379301 21.25  

-21.842188633379301 2
21.842188633379301 2

0 2
1 2

9 0 0 0 0 1 1 2 2 2 2 30.756367988545563 -40.756367988545563 11.289999999999999  34.342188633379301 -44.342188633379301 21.25  
4.2436320114544372 -40.756367988545563 11.289999999999999  0.65781136662069883 -44.342188633379301 21.25  

-16.842188633379301 2
16.842188633379301 2

0 2
1 2

9 0 0 0 0 1 1 2 2 2 2 4.2436320114544372 -4.2436320114544337 11.289999999999999  0.65781136662069883 -0.65781136662069883 21.25  
30.756367988545563 -4.2436320114544337 11.289999999999999  34.342188633379301 -0.65781136662069883 21.25  

-16.842188633379301 2
16.842188633379301 2

0 2
1 2

9 0 0 0 0 1 1 2 2 2 2 4.2436320114544337 -40.756367988545563 11.289999999999999  0.65781136662069883 -44.342188633379301 21.25  
4.2436320114544337 -4.2436320114544337 11.289999999999999  0.65781136662069883 -0.65781136662069883 21.25  

-21.842188633379301 2
21.842188633379301 2

0 2
1 2

1 -17.5 0 0 0.93605953573897338 0 -0.35184164840470183 0.35184164840470183 -0 0.93605953573897338 -0 1 -0 
1 0 -45 0 0.9433154043232771 -0.11677541515972241 -0.31067595719766716 0.33189764682264961 0.33189764682264955 0.88299937942626872 -1.5265566588595902e-16 0.93605953573897338 -0.35184164840470167 
1 30.756367988545563 -40.756367988545563 11.289999999999999 -0 0.35184164840470133 0.93605953573897349 -1 -0 -0 -0 0.93605953573897349 -0.35184164840470133 
1 35 -45 0 0.9433154043232771 0.11677541515972241 0.31067595719766716 -0.33189764682264961 0.33189764682264955 0.88299937942626872 1.5265566588595902e-16 0.93605953573897338 -0.35184164840470167 
1 35 -45 0 1 -0 0 -0 -0.93605953573897349 0.35184164840470133 -0 0.35184164840470133 0.93605953573897349 
1 35 -62.799668992793841 -47.355251913034671 -0 0.35184164840470133 0.93605953573897349 -1 -0 -0 -0 0.93605953573897349 -0.35184164840470133 
1 35 -45 0 -0 -0.93605953573897349 0.35184164840470133 -1 -0 -0 -0 0.35184164840470133 0.93605953573897349 
1 17.5 -96.661125777433938 19.418140575455464 -0 0.93605953573897338 -0.35184164840470183 -0 0.35184164840470183 0.93605953573897338 -1 -0 -0 
1 0 -45 0 1 -0 0 -0 -0.93605953573897349 0.35184164840470133 -0 0.35184164840470133 0.93605953573897349 
1 0 0 0 -0 -0 1 -1 -0 -0 -0 1 -0 
1 29 -40 21.25 -1 -0 -0 -0 1 -0 -0 -0 1 
1 29 -36 21.25 -0 -1 -0 -1 -0 -0 -0 -0 1 
1 5 -40 21.25 -1 -0 -0 -0 1 -0 -0 -0 1 
1 29 -40 21.25 -0 -1 -0 -1 -0 -0 -0 -0 1 
1 35 0 0 -0 0.35184164840470133 -0.93605953573897349 -1 -0 -0 -0 -0.93605953573897349 -0.35184164840470133 
1 0 22.5 0 0 -0.93605953573897338 -0.35184164840470183 -0 -0.35184164840470183 0.93605953573897338 1 -0 -0 
1 35 0 0 -0.9433154043232771 0.11677541515972241 -0.31067595719766716 -0.33189764682264961 -0.33189764682264955 0.88299937942626872 1.5265566588595902e-16 -0.93605953573897338 -0.35184164840470167 
1 0 0 0 -0.9433154043232771 -0.11677541515972241 0.31067595719766716 0.33189764682264961 -0.33189764682264955 0.88299937942626872 -1.5265566588595902e-16 -0.93605953573897338 -0.35184164840470167 
1 4.2436320114544372 -4.2436320114544337 11.289999999999999 -0 -0.35184164840470133 0.93605953573897349 1 -0 -0 0 -0.93605953573897349 -0.35184164840470133 
1 34.342188633379301 -0.65781136662069883 21.25 -0 -0 -1 -0.61063297345064305 -0.79191374008462956 -0 0.79191374008462956 -0.61063297345064305 -0 
1 17.5 0 0 -0.93605953573897338 -0 -0.35184164840470183 -0.35184164840470183 -0 0.93605953573897338 -0 -1 -0 
Triangulations 0

TShapes 143
Ve
1e-06
30.7563679885456 -4.24363201145443 11.29
0 0

0101101
*
Ve
1e-06
30.7563679885456 -40.7563679885456 11.29
0 0

0101101
*
Ed
 1e-07 1 1 0
1  1 0 -18.2563679885456 18.2563679885456
2  1 1 1 -18.2563679885456 18.2563679885456
0

0101000
+143 1 -142 1 *
Ve
1e-07
34.3421886333793 -44.3421886333793 21.25
0 0

0101101
*
Ed
 1e-07 1 1 0
1  2 0 0 1
2  2 1 0 0 1
2  3 2 0 0 1
0

0101000
+142 0 -140 0 *
Ve
1e-07
34.3421886333793 -0.657811366620699 21.25
0 0

0101101
*
Ed
 1e-07 1 1 0
1  3 0 -21.8421886333793 21.8421886333793
2  4 1 6 -21.8421886333793 21.8421886333793
0

0101000
+138 6 -140 6 *
Ed
 1e-07 1 1 0
1  4 0 0 1
2  5 1 0 0 1
2  6 3 0 0 1
0

0101000
+143 0 -138 0 *
Wi

0101100
+141 2 +139 0 -137 5 -136 0 *
Fa
0  1e-07 1 0

0101000
+135 0 *
Ve
1e-06
4.24363201145443 -4.24363201145443 11.29
0 0

0101101
*
Ed
 1e-07 1 1 0
1  5 0 -13.2563679885456 13.2563679885456
2  7 3 1 -13.2563679885456 13.2563679885456
0

0101000
+133 1 -143 1 *
Ve
1e-07
0.657811366620699 -0.657811366620699 21.25
0 0

0101101
*
Ed
 1e-07 1 1 0
1  6 0 -16.8421886333793 16.8421886333793
2  8 3 6 -16.8421886333793 16.8421886333793
0

0101000
+131 6 -138 6 *
Ed
 1e-07 1 1 0
1  7 0 0 1
2  9 3 0 0 1
2  10 4 0 0 1
0

0101000
+133 0 -131 0 *
Wi

0101100
+132 2 +136 0 -130 5 -129 0 *
Fa
0  1e-07 3 0

0101000
+128 0 *
Ve
1e-06
4.24363201145443 -40.7563679885456 11.29
0 0

0101101
*
Ed
 1e-07 1 1 0
1  8 0 -18.2563679885456 18.2563679885456
2  11 4 1 -18.2563679885456 18.2563679885456
0

0101000
+126 1 -133 1 *
Ve
1e-07
0.657811366620699 -44.3421886333793 21.25
0 0

0101101
*
Ed
 1e-07 1 1 0
1  9 0 -21.8421886333793 21.8421886333793
2  12 4 6 -21.8421886333793 21.8421886333793
0

0101000
+124 6 -131 6 *
Ed
 1e-07 1 1 0
1  10 0 0 1
2  13 4 0 0 1
2  14 2 0 0 1
0

0101000
+126 0 -124 0 *
Wi

0101100
+125 2 +129 0 -123 5 -122 0 *
Fa
0  1e-07 4 0

0101000
+121 0 *
Ve
1e-07
0 0 0
0 0

0101101
*
Ed
 1e-07 1 1 0
1  11 0 0 12.7859659508886
0

0101000
+119 1 -133 1 *
Ve
1e-07
0 -45 0
0 0

0101101
*
Ed
 1e-07 1 1 0
1  12 0 -22.5 22.5
0

0101000
+117 12 -119 12 *
Ed
 1e-07 1 1 0
1  13 0 0 12.7859659508886
0

0101000
+117 1 -126 1 *
Wi

0101100
-118 0 -116 11 +115 0 +125 0 *
Fa
0  1e-07 5 0

0101000
+114 0 *
Ve
1e-07
0 -198.158061237611 57.5683305119772
0 0

0101101
*
Ed
 1e-07 1 1 0
1  14 0 0 163.62
0

0101000
+112 0 -117 0 *
Ve
1e-06
4.24363201145443 -193.914429226156 68.8583305119772
0 0

0101101
*
Ed
 1e-07 1 1 0
1  15 0 0 12.7859659508886
0

0101000
+112 17 -110 17 *
Ed
 1e-07 1 1 0
1  16 0 0 163.62
0

0101000
+110 0 -126 0 *
Wi

0101100
-111 0 +109 16 +108 0 -115 2 *
Fa
0  1e-07 6 0

0111000
+107 0 *
Ve
1e-06
30.7563679885456 -193.914429226156 68.8583305119772
0 0

0101101
*
Ed
 1e-07 1 1 0
1  17 0 0 163.62
0

0101000
+105 0 -142 0 *
Ed
 1e-07 1 1 0
1  18 0 -13.2563679885456 13.2563679885456
0

0101000
+105 17 -110 17 *
Ed
 1e-07 1 1 0
1  19 0 -13.2563679885456 13.2563679885456
2  15 2 1 -13.2563679885456 13.2563679885456
0

0101000
+142 1 -126 1 *
Wi

0101100
-104 0 +103 16 +108 0 -102 2 *
Fa
0  1e-07 7 0

0111000
+101 0 *
Ve
1e-07
35 -45 0
0 0

0101101
*
Ve
1e-07
35 -198.158061237611 57.5683305119772
0 0

0101101
*
Ed
 1e-07 1 1 0
1  20 0 0 163.62
0

0101000
+99 0 -98 0 *
Ed
 1e-07 1 1 0
1  21 0 0 12.7859659508886
0

0101000
+98 17 -105 17 *
Ed
 1e-07 1 1 0
1  22 0 0 12.7859659508886
0

0101000
+99 1 -142 1 *
Wi

0101100
+97 0 +96 16 +104 0 -95 2 *
Fa
0  1e-07 8 0

0111000
+94 0 *
Ve
1e-07
35 -62.7996689927938 -47.3552519130347
0 0

0101101
*
Ed
 1e-07 1 1 0
1  23 0 0 50.59
0

0101000
+99 0 -92 0 *
Ve
1e-07
35 -215.957730230405 10.2130785989426
0 0

0101101
*
Ed
 1e-07 1 1 0
1  24 0 0 163.62
0

0101000
+92 0 -90 0 *
Ed
 1e-07 1 1 0
1  25 0 0 50.59
0

0101000
+98 18 -90 18 *
Wi

0101100
+91 0 +89 0 -88 15 -97 0 *
Fa
0  1e-07 9 0

0111000
+87 0 *
Ve
1e-07
0 -215.957730230405 10.2130785989426
0 0

0101101
*
Ed
 1e-07 1 1 0
1  26 0 -17.5 17.5
0

0101000
+90 21 -85 21 *
Ve
1e-07
0 -62.7996689927938 -47.3552519130347
0 0

0101101
*
Ed
 1e-07 1 1 0
1  27 0 0 163.62
0

0101000
+85 0 -83 0 *
Ed
 1e-07 1 1 0
1  28 0 -17.5 17.5
0

0101000
+92 23 -83 23 *
Wi

0101100
+89 0 +84 20 +82 0 -81 22 *
Fa
0  1e-07 10 0

0111000
+80 0 *
Ed
 1e-07 1 1 0
1  29 0 0 50.59
0

0101000
+117 0 -83 0 *
Ed
 1e-07 1 1 0
1  30 0 -17.5 17.5
0

0101000
+99 12 -117 12 *
Wi

0101100
+91 0 -78 0 -77 24 +81 22 *
Fa
0  1e-07 11 0

0101000
+76 0 *
Ed
 1e-07 1 1 0
1  31 0 0 50.59
0

0101000
+112 18 -85 18 *
Wi

0101100
+96 25 +103 25 -109 25 +74 0 -84 26 -88 0 *
Fa
0  1e-07 12 0

0101000
+73 0 *
Wi

0101100
+78 0 -82 0 -74 15 +111 0 *
Fa
0  1e-07 13 0

0111000
+71 0 *
Ve
1e-07
35 0 0
0 0

0101101
*
Ed
 1e-07 1 1 0
1  32 0 -22.5 22.5
0

0101000
+99 12 -69 12 *
Ed
 1e-07 1 1 0
1  33 0 -17.5 17.5
0

0101000
+69 12 -119 12 *
Wi

0101100
-68 24 +77 24 -67 24 +116 24 *
Ve
1.5e-07
29 -40 0
0 0

0101101
*
Ve
1.5e-07
5 -40 0
0 0

0101101
*
Ed
 1.5e-07 1 1 0
1  34 0 -5.75 18.25
0

0101000
+65 0 -64 0 *
Ve
1.5e-07
5 -36 0
0 0

0101101
*
Ed
 1.5e-07 1 1 0
1  35 0 -8.75 -4.75
0

0101000
+64 0 -62 0 *
Ve
1.5e-07
29 -36 0
0 0

0101101
*
Ed
 1.5e-07 1 1 0
1  36 0 -5.75 18.25
0

0101000
+60 0 -62 0 *
Ed
 1.5e-07 1 1 0
1  37 0 -8.75 -4.75
0

0101000
+65 0 -60 0 *
Wi

0101100
-63 0 -61 0 +59 0 +58 0 *
Fa
0  1e-07 14 28

0101000
+66 0 +57 0 *
Ve
1e-07
29 -40 21.25
0 0

0101101
*
Ve
1e-07
29 -36 21.25
0 0

0101101
*
Ed
 1e-07 1 1 0
1  38 0 -2 2
0

0101000
+55 33 -54 33 *
Ed
 1e-07 1 1 0
1  39 0 0 21.25
0

0101000
+54 0 -60 0 *
Ed
 1e-07 1 1 0
1  40 0 0 21.25
0

0101000
+55 0 -65 0 *
Wi

0101100
-53 32 -52 0 +58 0 +51 0 *
Fa
0  1e-07 15 0

0101000
+50 0 *
Ve
1e-07
5 -36 21.25
0 0

0101101
*
Ed
 1e-07 1 1 0
1  41 0 -12 12
0

0101000
+54 33 -48 33 *
Ed
 1e-07 1 1 0
1  42 0 0 21.25
0

0101000
+48 0 -62 0 *
Wi

0101100
-47 32 -46 0 +59 0 +52 0 *
Fa
0  1e-07 16 0

0101000
+45 0 *
Ve
1e-07
5 -40 21.25
0 0

0101101
*
Ed
 1e-07 1 1 0
1  43 0 -2 2
0

0101000
+43 33 -48 33 *
Ed
 1e-07 1 1 0
1  44 0 0 21.25
0

0101000
+43 0 -64 0 *
Wi

0101100
-42 32 -46 0 +61 0 +41 0 *
Fa
0  1e-07 17 0

0101000
+40 0 *
Ed
 1e-07 1 1 0
1  45 0 -12 12
0

0101000
+55 33 -43 33 *
Wi

0101100
-38 32 -41 0 +63 0 +51 0 *
Fa
0  1e-07 18 0

0101000
+37 0 *
Ve
1e-07
35 97.4250764797123 36.6196787659613
0 0

0101101
*
Ed
 1e-07 1 1 0
1  46 0 0 104.08
0

0101000
+35 0 -69 0 *
Ve
1e-07
0 97.4250764797123 36.6196787659613
0 0

0101101
*
Ed
 1e-07 1 1 0
1  47 0 -17.5 17.5
0

0101000
+35 37 -33 37 *
Ed
 1e-07 1 1 0
1  48 0 0 104.08
0

0101000
+33 0 -119 0 *
Wi

0101100
-34 0 +32 36 +31 0 -67 24 *
Fa
0  1e-07 19 0

0111000
+30 0 *
Ve
1e-06
4.24363201145443 93.1814444682579 47.9096787659613
0 0

0101101
*
Ed
 1e-07 1 1 0
1  49 0 0 12.7859659508886
0

0101000
+33 39 -28 39 *
Ve
1e-06
30.7563679885456 93.1814444682579 47.9096787659613
0 0

0101101
*
Ed
 1e-07 1 1 0
1  50 0 0 12.7859659508886
0

0101000
+35 39 -26 39 *
Ed
 1e-07 1 1 0
1  51 0 -13.2563679885456 13.2563679885456
0

0101000
+28 39 -26 39 *
Wi

0101100
+27 0 +32 11 -25 0 +24 0 *
Fa
0  1e-07 20 0

0101000
+23 0 *
Ed
 1e-07 1 1 0
1  52 0 0 104.08
0

0101000
+143 0 -26 0 *
Ed
 1e-07 1 1 0
1  53 0 0 12.7859659508886
0

0101000
+69 1 -143 1 *
Wi

0101100
-34 0 +25 38 -21 0 -20 2 *
Fa
0  1e-07 21 0

0111000
+19 0 *
Ed
 1e-07 1 1 0
1  54 0 0 104.08
0

0101000
+133 0 -28 0 *
Wi

0101100
-31 0 +27 38 -17 0 -118 2 *
Fa
0  1e-07 22 0

0111000
+16 0 *
Wi

0101100
+17 0 +24 38 -21 0 -132 2 *
Fa
0  1e-07 23 0

0111000
+14 0 *
Ed
 1e-07 1 1 0
1  55 0 -16.8421886333793 16.8421886333793
2  16 2 6 -16.8421886333793 16.8421886333793
0

0101000
+140 6 -124 6 *
Wi

0101100
-137 5 -130 5 -12 5 -123 5 *
Wi

0101100
-53 32 -47 32 +42 32 +38 32 *
Fa
0  1e-07 24 0

0101000
+11 0 +10 0 *
Wi

0101100
+102 2 +122 0 -12 5 -139 0 *
Fa
0  1e-07 2 0

0101000
+8 0 *
Wi

0101100
+20 0 +68 11 -95 0 +141 0 *
Fa
0  1e-07 25 0

0101000
+6 0 *
Sh

0101100
-134 0 -127 0 -120 0 +113 2 +106 0 -100 0 -93 0 -86 0 +79 0 +75 0 
+72 15 +70 0 +56 0 -49 0 -44 0 +39 0 +36 0 -29 0 +22 38 +18 0 
-15 0 -13 0 +9 0 -7 0 +5 2 *
So

0100000
+4 0 *
Co

0100000
+3 0 *
Co

1100000
+2 0 *

+1 0 