DBRep_DrawableShape

CASCADE Topology V3, (c) Open Cascade
Locations 7
1
              1               0               0              -0 
              0               1               0              -0 
              0               0               1               0 
1
              1               0               0               0 
              0               1               0               0 
              0               0               1               0 
1
              1              -0               0              -0 
              0               1               0               0 
             -0               0               1              -0 
2  1 1 2 1 3 1 0
1
              1               0               0               0 
              0               1               0               0 
              0               0               1            12.7 
2  1 1 2 1 3 1 5 1 0
2  3 -1 2 -1 1 -1 0
Curve2ds 28
1 -11.699999999999999 0 0 1 
1 0 -8.5500000000000007 1 0 
1 11.699999999999999 0 0 1 
1 0 8.5500000000000007 1 0 
8 -12.825000000000001 4.2750000000000004
1 10.399999999999999 -4.2750000000000004 0 -1 
8 -12.825000000000001 4.2750000000000004
1 4.2750000000000004 0 -1 0 
8 -10000000 10000000
1 15.800000000000001 0 0 1 
8 -10000000 10000000
1 22.099999999999998 0 0 1 
8 -17.549999999999997 5.8499999999999996
1 -5.8499999999999996 7.2500000000000009 -1 0 
8 -17.549999999999997 5.8499999999999996
1 5.8499999999999996 0 -1 0 
8 -10000000 10000000
1 22.099999999999998 0 0 -1 
8 -10000000 10000000
1 1.2999999999999998 0 0 -1 
8 -17.549999999999997 5.8499999999999996
1 -5.8499999999999996 -7.2500000000000009 -1 0 
8 -17.549999999999997 5.8499999999999996
1 5.8499999999999996 0 -1 0 
8 -12.825000000000001 4.2750000000000004
1 -10.399999999999999 -4.2750000000000004 0 -1 
8 -12.825000000000001 4.2750000000000004
1 4.2750000000000004 0 -1 0 
8 -10000000 10000000
1 1.2999999999999998 0 0 1 
8 -10000000 10000000
1 1.3000000000000007 0 0 1 
8 -10000000 10000000
1 15.800000000000001 0 0 1 
8 -10000000 10000000
1 1.3000000000000007 0 0 1 
8 -9999995.7249999996 9999995.7249999996
1 4.2750000000000004 -11.399999999999999 1 0 
8 -9999995.7249999996 9999995.7249999996
1 -10.399999999999999 -4.2750000000000004 0 1 
8 -9999994.1500000004 9999994.1500000004
1 5.8499999999999996 -11.399999999999999 1 0 
8 -9999994.1500000004 9999994.1500000004
1 -5.8499999999999996 -7.2500000000000009 1 0 
8 -9999994.1500000004 9999994.1500000004
1 5.8499999999999996 -11.399999999999999 1 0 
8 -9999994.1500000004 9999994.1500000004
1 -5.8499999999999996 7.2500000000000009 1 0 
8 -9999995.7249999996 9999995.7249999996
1 4.2750000000000004 -11.399999999999999 1 0 
8 -9999995.7249999996 9999995.7249999996
1 10.399999999999999 -4.2750000000000004 0 1 
Curves 20
1 -11.699999999999999 -8.5500000000000007 0 0 0 1 
1 -11.699999999999999 8.5500000000000007 0 0 0 1 
1 -11.699999999999999 0 0 -0 1 0 
1 11.699999999999999 -8.5500000000000007 0 0 0 1 
1 0 -8.5500000000000007 0 1 0 -0 
1 11.699999999999999 8.5500000000000007 0 0 0 1 
1 11.699999999999999 0 0 -0 1 0 
1 0 8.5500000000000007 0 1 0 -0 
1 10.399999999999999 -4.2750000000000004 0 0 -1 0 
8 -10000000 10000000
1 10.399999999999999 7.25 0 0 0 -1 
1 -5.8499999999999996 7.2500000000000009 0 -1 0 0 
8 -10000000 10000000
1 10.399999999999999 -7.2500000000000009 0 0 -0 1 
1 -5.8499999999999996 -7.2500000000000009 0 -1 0 0 
1 -10.399999999999999 -4.2750000000000004 0 0 -1 0 
8 -10000000 10000000
1 -10.399999999999999 -7.2500000000000009 0 0 0 -1 
8 -10000000 10000000
1 -10.399999999999999 7.25 0 0 0 -1 
8 -9999995.7249999996 9999995.7249999996
1 -10.399999999999999 -4.2750000000000004 11.399999999999999 0 1 -0 
8 -9999994.1500000004 9999994.1500000004
1 -5.8499999999999996 -7.2500000000000009 11.399999999999999 1 0 0 
8 -9999994.1500000004 9999994.1500000004
1 -5.8499999999999996 7.2500000000000009 11.399999999999999 1 0 0 
8 -9999995.7249999996 9999995.7249999996
1 10.399999999999999 -4.2750000000000004 11.399999999999999 0 1 -0 
Polygon3D 0
PolygonOnTriangulations 0
Surfaces 10
1 -11.699999999999999 -8.5500000000000007 0 -1 0 0 0 1 0 0 0 -1 
1 0 0 0 0 0 1 1 0 -0 -0 1 0 
1 -11.699999999999999 -8.5500000000000007 0 0 1 0 1 0 0 0 0 -1 
1 11.699999999999999 -8.5500000000000007 0 -1 0 0 0 1 0 0 0 -1 
1 -11.699999999999999 8.5500000000000007 0 0 1 0 1 0 0 0 0 -1 
1 10.399999999999999 -8.5500000000000007 0 -1 0 0 0 1 0 0 0 -1 
1 -11.699999999999999 7.2500000000000009 0 0 1 0 1 0 0 0 0 -1 
1 -11.699999999999999 -7.2500000000000009 0 0 1 0 1 0 0 0 0 -1 
1 -10.399999999999999 -8.5500000000000007 0 -1 0 0 0 1 0 0 0 -1 
1 0 0 -1.3 0 0 1 1 0 -0 -0 1 0 
Triangulations 0

TShapes 58
Ve
1e-07
-11.7 -8.55 0
0 0

0101101
*
Ed
 1e-07 1 1 0
1  1 0 0 12.7
0

0101000
+58 4 -58 6 *
Ve
1e-07
-11.7 8.55 0
0 0

0101101
*
Ed
 1e-07 1 1 0
1  2 0 0 12.7
0

0101000
+56 4 -56 6 *
Ed
 1e-07 1 1 0
1  3 0 -8.55 8.55
2  1 2 0 -8.55 8.55
0

0101000
+58 0 -56 0 *
Wi

0101100
+57 0 -55 0 -54 4 +54 6 *
Fa
0  1e-07 1 0

0101000
+53 0 *
Ve
1e-07
11.7 -8.55 0
0 0

0101101
*
Ed
 1e-07 1 1 0
1  4 0 0 12.7
0

0101000
+51 4 -51 6 *
Ed
 1e-07 1 1 0
1  5 0 -11.7 11.7
2  2 2 0 -11.7 11.7
0

0101000
+58 0 -51 0 *
Wi

0101100
+57 0 -50 0 -49 4 +49 6 *
Fa
0  1e-07 3 0

0101000
+48 0 *
Ve
1e-07
11.7 8.55 0
0 0

0101101
*
Ed
 1e-07 1 1 0
1  6 0 0 12.7
0

0101000
+46 4 -46 6 *
Ed
 1e-07 1 1 0
1  7 0 -8.55 8.55
2  3 2 0 -8.55 8.55
0

0101000
+51 0 -46 0 *
Wi

0101100
+50 0 -45 0 -44 4 +44 6 *
Fa
0  1e-07 4 0

0101000
+43 0 *
Ed
 1e-07 1 1 0
1  8 0 -11.7 11.7
2  4 2 0 -11.7 11.7
0

0101000
+56 0 -46 0 *
Wi

0101100
+55 0 -45 0 -41 4 +41 6 *
Fa
0  1e-07 5 0

0101000
+40 0 *
Wi

0101100
-54 0 +49 0 +44 0 -41 0 *
Fa
0  1e-07 2 0

0101000
+38 0 *
Wi

0101100
-54 4 +49 4 +44 4 -41 4 *
Ve
2.00000001831027e-07
10.4 7.25 0
-0 1 10 0
-0 2 7 6 0
-0 2 8 7 0
-11.525 1 9 0
-11.525 2 5 2 4
-11.525 2 6 6 0
-16.25 1 11 0
-16.25 2 9 2 4
-16.25 2 10 7 0
0 0

0101101
*
Ve
2.00000001776357e-07
10.4 -7.25 0
-0 1 12 0
-0 2 11 8 0
-0 2 12 6 0
-16.25 1 13 0
-16.25 2 13 2 4
-16.25 2 14 8 0
2.975 1 9 0
2.975 2 5 2 4
2.975 2 6 6 0
0 0

0101101
*
Ed
 1e-07 1 1 0
1  9 0 -11.525 2.975
2  5 2 4 -11.525 2.975
2  6 6 0 -11.525 2.975
0

0101000
+35 0 -34 0 *
Ve
2e-07
-10.4 -7.25 0
2.975 1 14 0
2.975 2 15 2 4
2.975 2 16 9 0
0 1 15 0
0 2 17 9 0
0 2 18 8 0
4.55 1 13 0
4.55 2 13 2 4
4.55 2 14 8 0
0 0

0101101
*
Ed
 1e-07 1 1 0
1  13 0 -16.25 4.55
2  13 2 4 -16.25 4.55
2  14 8 0 -16.25 4.55
0

0101000
+34 0 -32 0 *
Ve
2.00000000444089e-07
-10.4 7.25 0
0 1 16 0
0 2 19 9 0
0 2 20 7 0
-11.525 1 14 0
-11.525 2 15 2 4
-11.525 2 16 9 0
4.55 1 11 0
4.55 2 9 2 4
4.55 2 10 7 0
0 0

0101101
*
Ed
 1e-07 1 1 0
1  14 0 -11.525 2.975
2  15 2 4 -11.525 2.975
2  16 9 0 -11.525 2.975
0

0101000
+30 0 -32 0 *
Ed
 1e-07 1 1 0
1  11 0 -16.25 4.55
2  9 2 4 -16.25 4.55
2  10 7 0 -16.25 4.55
0

0101000
+35 0 -30 0 *
Wi

0101100
+33 0 +31 0 -29 0 -28 0 *
Fa
0  1e-07 2 0

0101000
+36 7 +27 7 *
Ve
2e-07
-10.4 -7.25 11.4
-11.4 1 15 0
-11.4 2 17 9 0
-11.4 2 18 8 0
-2.975 1 17 0
-2.975 2 21 9 0
-2.975 2 22 10 6
-4.55 1 18 0
-4.55 2 23 8 0
-4.55 2 24 10 6
0 0

0101101
*
Ed
 1e-07 1 1 0
1  15 0 -11.4 0
2  17 9 0 -11.4 0
2  18 8 0 -11.4 0
0

0101000
+25 0 -32 0 *
Ve
2.00000001776357e-07
-10.4 7.25 11.4
11.525 1 17 0
11.525 2 21 9 0
11.525 2 22 10 6
-11.4 1 16 0
-11.4 2 19 9 0
-11.4 2 20 7 0
-4.55 1 19 0
-4.55 2 25 7 0
-4.55 2 26 10 6
0 0

0101101
*
Ed
 1e-07 1 1 0
1  16 0 -11.4 0
2  19 9 0 -11.4 0
2  20 7 0 -11.4 0
0

0101000
+23 0 -30 0 *
Ed
 1e-07 1 1 0
1  17 0 -2.975 11.525
2  21 9 0 -2.975 11.525
2  22 10 6 -2.975 11.525
0

0101000
+25 0 -23 0 *
Wi

0101100
-24 0 +29 0 +22 0 +21 0 *
Fa
0  1e-07 9 0

0101000
+20 0 *
Ve
2e-07
10.4 -7.25 11.4
16.25 1 18 0
16.25 2 23 8 0
16.25 2 24 10 6
11.4 1 12 0
11.4 2 11 8 0
11.4 2 12 6 0
-2.975 1 20 0
-2.975 2 27 6 0
-2.975 2 28 10 6
0 0

0101101
*
Ed
 1e-07 1 1 0
1  12 0 -0 11.4
2  11 8 0 -0 11.4
2  12 6 0 -0 11.4
0

0101000
+34 0 -18 0 *
Ed
 1e-07 1 1 0
1  18 0 -4.55 16.25
2  23 8 0 -4.55 16.25
2  24 10 6 -4.55 16.25
0

0101000
+25 0 -18 0 *
Wi

0101100
-24 0 +31 0 -17 0 +16 0 *
Fa
0  1e-07 8 0

0101000
+15 0 *
Ve
2.00000001986027e-07
10.4 7.25 11.4
11.525 1 20 0
11.525 2 27 6 0
11.525 2 28 10 6
-11.4 1 10 0
-11.4 2 7 6 0
-11.4 2 8 7 0
16.25 1 19 0
16.25 2 25 7 0
16.25 2 26 10 6
0 0

0101101
*
Ed
 1e-07 1 1 0
1  10 0 -11.4 -0
2  7 6 0 -11.4 -0
2  8 7 0 -11.4 -0
0

0101000
+13 0 -35 0 *
Ed
 1e-07 1 1 0
1  20 0 -2.975 11.525
2  27 6 0 -2.975 11.525
2  28 10 6 -2.975 11.525
0

0101000
+18 0 -13 0 *
Wi

0101100
+33 0 +12 0 +11 0 +17 0 *
Fa
0  1e-07 6 0

0101000
+10 0 *
Ed
 1e-07 1 1 0
1  19 0 -4.55 16.25
2  25 7 0 -4.55 16.25
2  26 10 6 -4.55 16.25
0

0101000
+23 0 -13 0 *
Wi

0101100
-22 0 +28 0 +12 0 +8 0 *
Fa
0  1e-07 7 0

0101000
+7 0 *
Wi

0101100
-21 0 -8 0 +11 0 +16 0 *
Fa
0  1e-07 10 6

0101000
+5 0 *
Sh

0101100
+52 0 -47 0 -42 0 +39 0 +37 6 -26 4 -19 0 +14 0 +9 0 -6 0 
-4 0 *
So

0100100
+3 0 *
Co

1100000
+2 0 *

+1 0 