DBRep_DrawableShape

CASCADE Topology V3, (c) Open Cascade
Locations 66
1
              1               0               0               0 
              0               1               0               0 
              0               0               1               0 
1
              1              -0               0              -0 
              0               1               0               0 
             -0               0               1              -0 
1
              1               0               0               0 
              0               1               0               0 
              0               0               1           39.19 
2  1 1 2 1 3 1 0
2  2 -1 1 -1 0
2  3 -1 2 -1 1 -1 0
1
              1               0               0              -0 
              0               1               0             -30 
              0               0               1              -0 
2  7 -1 0
1
              1               0               0              -0 
              0               1               0              -0 
              0               0               1               0 
1
              1               0               0         48.2877 
              0               1               0       -63.01495 
              0               0               1               0 
1
              1              -0               0              -0 
              0               1               0               0 
             -0               0               1           39.19 
1
              1               0               0              -0 
              0               1               0              -0 
              0               0               1          -13.68 
2  9 1 10 1 11 1 12 1 0
2  1 1 2 1 3 1 7 1 0
2  7 -1 2 -1 1 -1 0
2  7 -1 3 -1 2 -1 1 -1 0
2  9 1 10 1 11 1 0
2  11 -1 10 -1 9 -1 0
2  12 -1 11 -1 10 -1 9 -1 0
1
              1               0               0               0 
              0               1               0              30 
              0               0               1              -0 
2  1 1 2 1 3 1 20 1 0
2  20 -1 2 -1 1 -1 0
2  20 -1 3 -1 2 -1 1 -1 0
1
              1               0               0              -0 
              0               1               0              -0 
              0               0               1               0 
1
              1               0               0             -30 
              0               1               0              -4 
              0               0               1               0 
1
              1              -0               0              -0 
              0               1               0               0 
             -0               0               1           39.19 
2  24 1 25 1 26 1 0
2  26 -1 25 -1 24 -1 0
1
              1               0               0              -0 
              0               1               0              -0 
              0               0               1           -11.4 
2  29 -1 26 -1 25 -1 24 -1 0
1
              1               0               0              -0 
              0               1               0              -0 
              0               0               1               0 
1
              1               0               0               0 
              0               1               0             -10 
              0               0               1               0 
1
              1              -0               0              -0 
              0               1               0               0 
             -0               0               1           39.19 
2  31 1 32 1 33 1 0
2  33 -1 32 -1 31 -1 0
1
              1               0               0              -0 
              0               1               0              -0 
              0               0               1          -10.82 
2  36 -1 33 -1 32 -1 31 -1 0
1
              1               0               0              -0 
              0               1               0              -0 
              0               0               1               0 
1
              1               0               0              36 
              0               1               0               2 
              0               0               1               0 
1
              1              -0               0              -0 
              0               1               0               0 
             -0               0               1           39.19 
2  38 1 39 1 40 1 0
2  40 -1 39 -1 38 -1 0
1
              1               0               0              -0 
              0               1               0              -0 
              0               0               1           -8.01 
2  43 -1 40 -1 39 -1 38 -1 0
2  20 -1 0
2  24 1 25 1 26 1 29 1 0
2  31 1 32 1 33 1 36 1 0
2  38 1 39 1 40 1 43 1 0
1
              1               0               0              -0 
              0               1               0              -0 
              0               0               1               0 
1
              1               0               0             -30 
              0               1               0            -4.5 
              0               0               1               0 
1
              1              -0               0              -0 
              0               1               0               0 
             -0               0               1           27.79 
2  49 1 50 1 51 1 0
2  51 -1 50 -1 49 -1 0
1
              1               0               0               0 
              0               1               0               0 
              0               0               1           17.32 
2  54 -1 51 -1 50 -1 49 -1 0
2  24 1 25 1 26 1 29 1 51 -1 50 -1 49 -1 0
1
              1               0               0              -0 
              0               1               0              -0 
              0               0               1               0 
1
              1               0               0              36 
              0               1               0               2 
              0               0               1               0 
1
              1              -0               0              -0 
              0               1               0               0 
             -0               0               1           31.18 
2  57 1 58 1 59 1 0
2  59 -1 58 -1 57 -1 0
1
              1               0               0               0 
              0               1               0               0 
              0               0               1            2.89 
2  62 -1 59 -1 58 -1 57 -1 0
2  38 1 39 1 40 1 43 1 59 -1 58 -1 57 -1 0
2  49 1 50 1 51 1 54 1 0
2  57 1 58 1 59 1 62 1 0
Curve2ds 288
1 1.0471975511965974 0 0 1 
1 51.880558471456077 0 0 -1 
1 3.5527136788005009e-15 -0.42426406871192768 1 0 
1 3.5527136788005009e-15 -0.59999999999999998 1 0 
1 26.575364531836634 -46.029881598804927 0.49999999999999994 0.86602540378443871 
1 0 0 1 0 
1 0 -39.189999999999998 1 0 
1 26.575364531836634 -46.029881598804927 0.49999999999999994 0.86602540378443871 
1 26.575364531836634 -46.029881598804927 0.49999999999999994 0.86602540378443871 
1 26.575364531836634 -46.029881598804927 0.49999999999999994 0.86602540378443871 
1 26.575364531836634 -46.029881598804927 0.49999999999999994 0.86602540378443871 
1 0 0 0 -1 
1 0 0 1 0 
1 0 -30.000000000000007 1 0 
1 53.150729063673282 0 0 -1 
1 0 0 -1 0 
8 5.9149999999999991 19.594999999999999
1 1.1546215554824764 -19.594999999999999 0 -1 
8 5.9149999999999991 19.594999999999999
1 0.5772753095778711 -19.594999999999999 0 1 
8 1.9267374295115287 3.0812880486672687
1 -1.9266664931847943 -25.509999999999998 1 0 
8 1.9267374295115287 3.0812880486672687
1 -22.675668714755762 15.316526273476761 0.49999999999999994 0.86602540378443871 
8 -19.594999999999999 -5.9149999999999991
1 7.0936326737505961e-05 -19.594999999999999 0 1 
8 -19.594999999999999 -5.9149999999999991
1 34.970129833856078 -19.594999999999999 0 -1 
1 0 0 0 1 
1 1.2701705922171769 0 0 -1 
1 0 0 1 0 
1 1.0471975511965981 0.59999999999999998 -1 -0 
1 -4.1887902047863905 39.189999999999998 1 0 
2 50.6103878792389 4.2656975501689262e-15 0 -1 -1 -0 2.2000000000000002
1 -0.20784609690826747 -0.25455844122715932 -0.77459666924148407 0.63245553203367522 
1 -0.20784609690826272 -0.25455844122715743 -0.77459666924148307 0.63245553203367633 
1 3.5527136788005009e-15 0.42426406871192768 1 0 
1 26.055749289565973 -45.72988159880493 0.49999999999999994 0.86602540378443871 
8 -0.42426406871192768 0.42426406871192768
1 51.880558471456069 0 0 1 
8 -0.42426406871192768 0.42426406871192768
1 6.6613381477509392e-16 0.42426406871192768 0 1 
1 53.150729063673282 0 1.3368447588157959e-16 -1 
1 39.189999999999998 0 0 -1 
1 26.575364531836634 -46.029881598804927 0 -1 
8 0 30
1 0 0 0 1 
1 -26.575364531836652 -46.02988159880492 1 -1.3368447588157959e-16 
1 0 0 1 0 
1 4.0105342764473879e-15 -30 1 0 
1 0 0 1 0 
1 4.0105342764473879e-15 -30 1 0 
1 -26.575364531836652 -46.02988159880492 1 -1.3368447588157959e-16 
1 -26.575364531836652 -46.02988159880492 1 -1.3368447588157959e-16 
1 0 0 1 0 
1 0 -39.189999999999998 1 0 
1 -26.575364531836652 -76.02988159880492 1 -1.3368447588157959e-16 
1 -26.575364531836652 -76.02988159880492 1 -1.3368447588157959e-16 
1 0 -39.189999999999998 1 0 
1 -21.712299999999999 0 0 1 
1 17.984999999999999 0 1 0 
1 17.984999999999999 -13.68 1 0 
1 26.575400000000002 -63.014949999999999 0 1 
1 0 0 1.3368447588157959e-16 -1 
1 39.189999999999998 0 0 -1 
1 -26.575364531836652 -46.02988159880492 0 -1 
1 0 17.984999999999999 1 0 
1 21.712299999999999 0 1 0 
1 21.712299999999999 -13.68 1 0 
1 48.287700000000001 -45.029949999999999 1 0 
1 -53.150729063673253 7.2220708933859891e-15 0.49999999999999967 -0.86602540378443882 
1 -53.150729063673253 7.2220708933859891e-15 0.49999999999999967 -0.86602540378443882 
1 -53.150729063673253 7.2220708933859891e-15 0.49999999999999967 -0.86602540378443882 
1 0 0 1 0 
1 0 -39.189999999999998 1 0 
1 -53.150729063673253 7.2220708933859891e-15 0.49999999999999967 -0.86602540378443882 
1 -53.150729063673253 7.2220708933859891e-15 0.49999999999999967 -0.86602540378443882 
1 -4.1887902047863905 39.189999999999998 1 0 
2 -47.723636533290772 5.7808916559316318e-15 0 -1 1 0 4.7000000000000002
1 -10.575364531836598 73.742694519907005 -0.49999999999999983 -0.86602540378443893 
1 -32.000000000000043 -39.189999999999998 1 0 
1 52.515643767564697 1.1000000000000008 -0.50000000000000033 0.8660254037844386 
1 1.2701705922171596 -39.189999999999998 1 0 
1 0 -11.313708498984759 1 0 
1 -10.575364531836614 46.029881598804934 0 1 
1 0 -9.0509667991878064 1 0 
1 13.775364531836635 46.029881598804927 0 1 
1 0 0 1 0 
1 4.0105342764473911e-15 -30.000000000000007 1 0 
1 0 0 1 0 
1 4.0105342764473911e-15 -30.000000000000007 1 0 
1 0 0 1 0 
1 0 -39.189999999999998 1 0 
1 26.575364531836634 46.029881598804927 -1 1.3368447588157966e-16 
1 26.575364531836634 76.029881598804934 -1 1.3368447588157966e-16 
1 26.575364531836634 76.029881598804934 -1 1.3368447588157966e-16 
1 26.575364531836634 76.029881598804934 -1 1.3368447588157966e-16 
1 26.575364531836634 76.029881598804934 -1 1.3368447588157966e-16 
1 0 -16 1 0 
1 8 0 1 0 
1 8 -11.399999999999999 1 0 
1 -30 -20 1 0 
1 8 0 0 1 
1 16 0 1 0 
1 16 -11.399999999999999 1 0 
1 -22 -3.9999999999999991 0 1 
1 0 16 1 0 
1 8 0 1 0 
1 8 -11.399999999999999 1 0 
1 -30 12 1 0 
1 -8 0 0 1 
1 16 0 1 0 
1 16 -11.399999999999999 1 0 
1 -38 -3.9999999999999991 0 1 
1 0 -60 1 0 
1 18 0 1 0 
1 18 -10.82 1 0 
1 1.42596774273685e-15 -70 1 0 
1 -18 0 0 1 
1 60 0 1 0 
1 60 -10.82 1 0 
1 -18 -10 0 1 
1 18 0 0 1 
1 60 0 1 0 
1 60 -10.82 1 0 
1 18 -10 0 1 
1 0 60 1 0 
1 18 0 1 0 
1 18 -10.82 1 0 
1 1.42596774273685e-15 50 1 0 
1 0 0 1 0 
1 0 -8.0099999999999998 1 0 
2 5.4697605301576938e-16 -1.3876045329998488e-16 1 0 -0 1 10
2 36 2.0000000000000009 1 0 -0 1 10
1 0 0 1 0 
2 0 0 -1 0 0 1 39.189999999999998
1 0 -0.42426406871192768 1 0 
1 -0.59999999999999998 0 -1.1102230246251565e-16 1 
8 -28.333832265918311 10.856132265918319
1 -25.509999999999998 10.856167734081687 0 -1 
8 -28.333832265918311 10.856132265918319
1 -10.85616773408168 16.985068401195072 -1 0 
8 5.9149999999999991 19.594999999999999
1 -19.594999999999999 3.5468163368079786e-05 -1 0 
8 5.9149999999999991 19.594999999999999
1 34.970068401195071 -19.594999999999999 0 1 
1 35.969999999999999 0 0 -1 
1 0 0 0 -1 
1 0 -0.42426406871192057 1 0 
1 1.2701705922171769 -0.59999999999999998 1 0 
1 53.150729063673246 0 0 -1 
1 0 0 1 0 
1 0 -30.000000000000007 1 0 
1 0 0 0 -1 
1 -20.765809687008076 26.006179408825744 -0.77459666924148352 0.63245553203367588 
1 29.172437438203954 -14.400854187265351 -0.89442719099991597 0.44721359549995793 
1 0 0.84852813742385702 1 0 
2 50.6103878792389 4.2656975501689262e-15 0.86602540378443749 -0.500000000000002 0.500000000000002 0.86602540378443749 1.6000000000000001
8 0 0.84852813742385702
1 1.0471975511965981 0 0 1 
8 0 0.84852813742385702
1 0 -0.42426406871192057 0 1 
1 0 0.42426406871193478 1 0 
1 26.575364531836634 -46.629881598804928 1 0 
1 32.42329737031185 9.2123156945281348 -0.57440383368056969 0.81857207126377363 
1 6.8140908980321129 -8.7546071877616534 0.57881786248053291 -0.81545685482033137 
1 0 0 1 0 
1 65.16536453183663 -46.029881598804927 -0 -1 
1 0 0.42426406871192768 1 0 
1 51.996028525294008 0.80000000000000393 -0.49999999999999994 0.86602540378443871 
1 0 0.42426406871192768 1 0 
1 65.765364531836624 -75.42988159880494 -1 1.5389584703628397e-16 
1 0 -0.42426406871192768 1 0 
1 25.975364531836632 46.029881598804927 0 1 
1 0 0.42426406871192768 1 0 
1 -25.97536453183665 -46.02988159880492 0 -1 
1 0 0.42426406871192768 1 0 
1 26.575364531836634 75.42988159880494 -1 1.3368447588157966e-16 
1 0 0.42426406871192768 1 0 
1 -51.274340688806973 -2.0499999999999918 0.49999999999999967 -0.86602540378443882 
1 0 -0.42426406871193123 1 0 
1 -25.975364531836615 46.029881598804934 0 1 
1 0 0.84852813742385702 1 0 
2 -47.723636533290772 5.7808916559316318e-15 -0.86602540378443826 0.50000000000000078 -0.50000000000000078 -0.86602540378443826 4.1000000000000005
1 0 0.42426406871192768 1 0 
1 -26.055749289565956 45.729881598804944 -0.50000000000000022 -0.8660254037844386 
1 0 30 1 0 
2 0 0 -1 0 0 1 39.189999999999998
2 53.150729063673282 0 0 -1 1 0 39.189999999999998
1 9.0503096116535099e-07 16.985068401195072 0 -1 
1 0 -0.42426406871192057 1 0 
1 92.34072906367328 -0.59999999999999998 -1 3.8473961759070993e-17 
8 15.719232265918329 54.909196797754952
1 37.431532265918328 -25.509999999999998 1 0 
8 15.719232265918329 54.909196797754952
1 -37.431532265918328 -13.014931598804935 1 -1.3368447588157959e-16 
1 0 0 1 0 
1 0 -30 1 0 
1 0 0 0 -1 
1 53.150729063673239 0 0 -1 
1 0 0 0 -1 
8 -19.594999999999999 -5.9149999999999991
1 53.150764531836657 -19.594999999999999 0 1 
8 -19.594999999999999 -5.9149999999999991
1 4.9700684011950642 -19.594999999999999 -0 -1 
1 0 -0.42426406871192768 1 0 
1 0.59999999999999998 0 -0 -1 
1 1.0471975511965974 0 0 1 
1 2.7135462651912441 0 0 -1 
1 0 -0.42426406871192768 1 0 
1 2.7135462651912405 -0.59999999999999998 1 0 
1 0 0 0 1 
1 50.43718279848202 0 0 -1 
1 0 0 1 0 
1 -8.8817841970012523e-16 0.59999999999999998 1 0 
1 53.150729063673253 0 0 -1 
1 0 0 1 0 
1 0 -30 1 0 
1 0 0 0 -1 
1 0 -0.42426406871192057 1 0 
1 -7.1054273576010019e-15 -0.59999999999999998 1 0 
1 -1.2453445306420221 12.330528050331022 -0.77459666924148329 0.6324555320336761 
1 1.4380000000000019 -22.470999999999997 0.89442719099991597 0.44721359549995809 
1 0 11.313708498984759 1 0 
1 23.189999999999998 0 0 -1 
1 30 -4.9358630956157397 9.4529199435234424e-17 1 
1 41.660546797754932 -34.680182265918312 0.70710678118654757 0.70710678118654757 
1 0 9.05096679918781 1 0 
1 26.389999999999997 0 0 -1 
1 30.000000000000007 13.855757377350399 -9.4529199435234424e-17 1 
1 -3.3975000000000009 -22.9925 -0.70710678118654757 0.70710678118654757 
1 0 -0.42426406871192057 1 0 
1 0 -0.59999999999999998 1 0 
1 0 0 0 -1 
1 0 0 0 -1 
1 16 0 0 -1 
1 0 0 0 -1 
1 32 0 0 -1 
1 16 0 0 -1 
1 32 0 0 -1 
1 0 0 0 -1 
1 0 0 0 -1 
1 0 0 0 -1 
1 0 0 0 -1 
1 36 0 0 -1 
1 0 0 0 -1 
1 120 0 0 -1 
1 120 0 0 -1 
1 36 0 0 -1 
1 0 0 0 -1 
1 6.2831853071795862 0 0 -1 
1 0 0.84527415073180379 1 0 
1 1.5554861491965675 0 0 1 
8 -5.999999999062311e-07 30.0000006
1 0.86198566687488176 0 0 1 
8 -5.999999999062311e-07 30.0000006
1 8.0382275517191317 16.985068401195072 -0 -1 
1 51.059214040243184 -4.7592516962614955 0.18615678789739359 0.98252005084869642 
1 0.82134443121280043 4.7592516962615123 -0.18615678789737722 -0.98252005084869953 
1 0 0.42426406871193123 1 0 
1 0.59999999999999998 0 0 -1 
1 5.2886609394030888 7.1059863546308382 0.57440383368057202 0.81857207126377207 
1 24.675308861621495 -6.6562938455087188 -0.57881786248052836 -0.81545685482033459 
1 71.750607553060917 28.694565022505842 -0.5773502691896284 0.81649658092772426 
1 9.4098784893879071 28.694565022506019 -0.57735026918962162 0.81649658092772892 
1 5.1999999999999886 6.9296464556281041 0.57735026918962851 0.81649658092772415 
1 24.800000000000075 -6.9296464556281405 -0.57735026918962162 -0.81649658092772892 
1 0.79633480856712424 -4.6272529870496495 -0.18615678789737691 0.98252005084869953 
1 49.640847989914683 -4.6272529870496131 0.18615678789739373 0.98252005084869642 
1 39.092274219727635 19.457393437605553 -0.57735026918962862 0.81649658092772415 
1 15.941545156054552 -19.457393437605667 -0.57735026918962162 -0.81649658092772892 
8 0 0.84852813742385702
1 1.0471975511965983 0 0 1 
8 0 0.84852813742385702
1 3.5527136788005009e-15 -0.42426406871192768 0 1 
1 -0.077599076226025382 -0.014702595393918022 -0.1861567878973904 0.98252005084869709 
1 -0.077599076226007924 0.014702595393920329 -0.18615678789738097 -0.98252005084869876 
1 0 0.42426406871192768 1 0 
1 0.59999999999999998 0 0 -1 
8 -0.42426406871192057 0.42426406871192768
1 50.437182798482027 0 0 1 
8 -0.42426406871192057 0.42426406871192768
1 8.8817841970012523e-16 0.42426406871192057 0 1 
1 0 -6.5 1 0 
1 3 0 1 0 
1 3 -17.32 1 0 
1 0 -7 1 0 
1 3 0 0 1 
1 6.5 0 1 0 
1 6.5 -17.32 1 0 
1 3 -0.5 0 1 
1 0 6.5 1 0 
1 3 0 1 0 
1 3 -17.32 1 0 
1 0 6 1 0 
1 -3 0 0 1 
1 6.5 0 1 0 
1 6.5 -17.32 1 0 
1 -3 -0.5 0 1 
1 0 0 1 0 
1 0 -2.8900000000000001 1 0 
2 1.2819751242557092e-16 -3.8218883405570515e-18 1 0 -0 1 2
2 5.4697605301576938e-16 -1.3876045329998488e-16 1 0 -0 1 2
1 0 0 0 -1 
1 0 0 0 -1 
1 6 0 0 -1 
1 0 0 0 -1 
1 13 0 0 -1 
1 6 0 0 -1 
1 13 0 0 -1 
1 0 0 0 -1 
1 0 0 0 -1 
1 6.2831853071795862 0 0 -1 
Curves 106
1 52.515643767564669 -1.0999999999999961 0 0 0 1 
1 26.575364531836637 -46.029881598804927 0.59999999999999998 0.49999999999999994 0.86602540378443871 0 
1 26.575364531836634 -46.029881598804927 0 0.49999999999999994 0.86602540378443871 0 
1 26.575364531836634 -46.029881598804927 0 0 0 1 
1 27.152675309577873 -45.029949999999999 19.594999999999999 0 0 1 
1 25.612031285244239 -47.698423726523238 25.509999999999998 0.49999999999999994 0.86602540378443871 -0 
1 26.575400000000002 -46.029820166143921 19.594999999999999 0 0 -1 
1 52.515643767564669 1.1000000000000034 0 0 0 1 
2 50.6103878792389 3.5527136788005009e-15 0.59999999999999998 0 0 1 0.86602540378443771 -0.50000000000000178 0 0.50000000000000178 0.86602540378443771 -0 2.2000000000000002
8 4.1887902047863923 5.2359877559829879
2 50.6103878792389 3.5527136788005009e-15 39.189999999999998 -0 -0 -1 0 -1 0 -1 0 0 2.2000000000000002
8 -0.26832815729996828 1.0733126291999078
1 26.367518434928371 -46.149881598804932 0.48000000000000065 -0.77459666924148307 -0.44721359549995882 -0.44721359549995771 
1 26.055749289565973 -45.72988159880493 0 0.49999999999999994 0.86602540378443871 0 
1 52.255836146429345 -0.95000000000000284 0.29999999999999133 -0.61237243569579425 0.35355339059327345 -0.70710678118654813 
1 26.575364531836634 -46.029881598804927 39.189999999999998 -0 -1 -0 
1 -26.575364531836652 -46.02988159880492 0 1 -1.3368447588157959e-16 0 
1 -21.712299999999999 0 0 -0 1 0 
1 -26.575364531836652 -46.02988159880492 39.189999999999998 -0 -1 -0 
1 0 17.984999999999999 0 1 0 -0 
1 -53.150729063673253 6.5090870220175646e-15 0 0.49999999999999967 -0.86602540378443882 0 
8 4.1887902047863905 5.2359877559829879
2 -47.723636533290772 5.0679077845632065e-15 39.189999999999998 0 0 1 0 -1 0 1 0 -0 4.7000000000000002
8 0 82.437182798482027
1 -10.5753645318366 73.742694519907005 39.189999999999998 -0.49999999999999983 -0.86602540378443893 0 
8 0 77.480558471456149
1 52.515643767564697 1.1000000000000001 39.189999999999998 -0.50000000000000033 0.8660254037844386 0 
1 -10.575364531836616 46.029881598804934 39.189999999999998 0 1 -0 
1 13.775364531836633 46.029881598804927 39.189999999999998 0 1 -0 
1 26.575364531836634 46.029881598804927 0 -1 1.3368447588157966e-16 0 
1 0 -16 0 1 0 -0 
1 8 0 0 -0 1 0 
1 0 16 0 1 0 -0 
1 -8 0 0 -0 1 0 
1 0 -60 0 1 0 -0 
1 -18 0 0 -0 1 0 
1 18 0 0 -0 1 0 
1 0 60 0 1 0 -0 
2 0 0 0 0 0 1 1 0 -0 -0 1 0 10
2 26.575364531836634 -46.029881598804927 0 0 1 0 0 -0 1 1 0 -0 39.189999999999998
1 26.575364531836634 -46.029881598804927 0.59999999999999998 1 0 1.1102230246251565e-16 
1 37.431532265918321 -46.029881598804927 25.509999999999998 -1 0 0 
1 26.575400000000002 -46.029881598804927 19.594999999999999 0 0 1 
1 26.575400000000002 -45.029949999999999 39.189999999999998 -0 -0 -1 
1 52.515643767564669 1.1000000000000032 0.59999999999999998 -0.49999999999999994 0.86602540378443871 0 
1 26.575364531836634 46.029881598804927 0 0 0 1 
8 -55.430215141428967 -26.808545029431642
1 38.564510344571275 25.264071911796851 14.400854187265351 0.44721359549995793 -0.77459666924148352 -0.44721359549995793 
2 50.6103878792389 3.5527136788005009e-15 0 0 0 1 0.86602540378443771 -0.50000000000000178 0 0.50000000000000178 0.86602540378443771 -0 1.6000000000000001
1 52.515643767564669 1.1000000000000005 0.59999999999999998 -0.6123724356957958 -0.35355339059327318 -0.70710678118654668 
1 26.575364531836634 -46.629881598804928 0 1 0 1.1102230246251565e-16 
8 -11.77241165910082 -10.735831253378262
1 58.998661902148484 -52.84397249683704 -6.2140908980320946 -0.57440383368056969 -0.57881786248053291 -0.57881786248053146 
1 65.16536453183663 -46.029881598804927 0 -0 -1 0 
1 51.996028525294008 0.80000000000000326 0 -0.49999999999999994 0.86602540378443871 0 
1 65.765364531836624 -75.42988159880494 0 -1 1.5389584703628397e-16 -3.8473961759070993e-17 
1 25.975364531836632 46.029881598804927 0 0 1 -0 
1 -25.97536453183665 -46.02988159880492 0 -0 -1 -0 
1 26.575364531836634 75.42988159880494 0 -1 1.3368447588157966e-16 0 
1 -51.274340688806973 -2.0499999999999927 0 0.49999999999999967 -0.86602540378443882 0 
1 -25.975364531836615 46.029881598804934 0 0 1 -0 
2 -47.723636533290772 5.0679077845632065e-15 0 0 0 1 -0.86602540378443815 0.500000000000001 0 -0.500000000000001 -0.86602540378443815 0 4.1000000000000005
1 -26.055749289565956 45.729881598804944 0 -0.50000000000000022 -0.8660254037844386 0 
2 26.575364531836634 -76.029881598804934 0 0 1 0 0 -0 1 1 0 -0 39.189999999999998
1 65.765364531836624 -76.029881598804934 0.59999999999999998 -1 1.5389584703628397e-16 -3.8473961759070993e-17 
1 10.856167734081675 -76.029881598804934 25.509999999999998 1 -1.3368447588157959e-16 0 
1 -26.575364531836652 -46.02988159880492 0 0 0 1 
1 26.575400000000002 -76.029881598804934 19.594999999999999 0 -0 -1 
1 -26.575364531836652 -46.02988159880492 0.59999999999999998 -0 -1 -0 
1 -51.793955931077633 -2.349999999999993 0 0 0 1 
1 -51.793955931077633 -2.3499999999999925 0.59999999999999998 0.49999999999999967 -0.86602540378443882 0 
1 -51.793955931077633 2.3500000000000059 0 0 0 1 
2 -47.723636533290772 5.0679077845632065e-15 0.59999999999999998 0 0 1 -0.86602540378443815 0.500000000000001 0 -0.500000000000001 -0.86602540378443815 0 4.7000000000000002
1 -26.575364531836616 46.029881598804934 0 0 0 1 
1 -26.57536453183662 46.029881598804941 0.59999999999999998 -0.50000000000000022 -0.8660254037844386 0 
8 -37.384820515818987 -1.607732875822351
1 -27.294364531836621 44.784537068162912 22.470999999999997 -0.44721359549995809 -0.77459666924148329 -0.44721359549995809 
1 -26.575364531836616 46.029881598804934 23.189999999999998 0 1 -0 
8 -6.3778454033690224 16.249571594600503
1 -15.085182265918302 76.029881598804934 34.680182265918312 -0.70710678118654757 9.4529199435234449e-17 -0.70710678118654757 
1 26.575364531836634 46.029881598804927 26.389999999999997 0 1 -0 
8 -22.906724176538205 -4.8047905781625895
1 29.972864531836635 76.029881598804934 22.9925 0.70710678118654757 -9.4529199435234449e-17 -0.70710678118654757 
1 26.575364531836634 76.029881598804934 0.59999999999999998 -1 1.3368447588157966e-16 0 
1 -38 -20 39.189999999999998 -0 -0 -1 
1 -22 -20 39.189999999999998 -0 -0 -1 
1 -22 12 39.189999999999998 -0 -0 -1 
1 -38 12 39.189999999999998 -0 -0 -1 
1 -18 -70 39.189999999999998 -0 -0 -1 
1 18 -70 39.189999999999998 -0 -0 -1 
1 -18 50 39.189999999999998 -0 -0 -1 
1 18 50 39.189999999999998 -0 -0 -1 
1 46 2 39.189999999999998 -0 -0 -1 
1 65.760771523416111 -46.029881598804927 0.59998241997049639 -0 -1 0 
1 56.325927551719133 -46.029881598804927 25.509999999999998 -0 -1 -0 
8 4.4121111053204718 5.2757353506383158
1 29.640663679636731 46.851226030017727 3.6652991478000909 -0.69474659060686772 -0.18615678789737719 -0.69474659060686605 
1 26.575364531836634 46.029881598804927 0.59999999999999998 0 1 -0 
8 -9.1992364753379885 -8.1626560696154353
1 60.476703592433537 -70.705190460426422 -4.7246911383785664 -0.57440383368057191 0.57881786248052836 -0.57881786248053391 
8 -35.663136590397251 -34.623906105855923
1 -5.9852430212242993 -55.439760088192827 -19.990121510612298 0.57735026918962862 0.57735026918962173 -0.57735026918962717 
8 -9.0066641993581023 -7.967433714816778
1 21.375364531836645 70.829881598805002 -4.5999999999999766 -0.57735026918962862 -0.57735026918962173 -0.57735026918962717 
8 4.2777640158154275 5.1413882611332697
1 -29.54732649724518 -46.826216407372044 3.5719619654085002 0.69474659060686772 0.18615678789737689 -0.69474659060686605 
8 -24.349958065626481 -23.310727581085153
1 -12.516909687890999 61.971426754859486 -13.458454843945574 0.57735026918962862 -0.57735026918962173 -0.57735026918962717 
1 -51.793955931077633 -2.3499999999999939 0.59999999999999998 0.61237243569579547 0.35355339059327395 -0.70710678118654668 
8 -0.41684795436411465 0.4467762909537269
1 -26.2857608367407 45.952282522578926 0.31039630490408204 0.69474659060686728 -0.18615678789738097 -0.69474659060686561 
1 -26.575364531836616 46.029881598804934 0.59999999999999998 0 1 -0 
1 -51.53414830994231 2.2000000000000028 0.30000000000000138 0.61237243569579414 -0.35355339059327373 -0.70710678118654802 
1 0 -6.5 0 1 0 -0 
1 3 0 0 -0 1 0 
1 0 6.5 0 1 0 -0 
1 -3 0 0 -0 1 0 
2 0 0 0 0 0 1 1 0 -0 -0 1 0 2
1 -33 -11 27.789999999999999 0 0 1 
1 -27 -11 27.789999999999999 0 0 1 
1 -27 2 27.789999999999999 0 0 1 
1 -33 2 27.789999999999999 0 0 1 
1 38 2 31.18 0 0 1 
Polygon3D 0
PolygonOnTriangulations 0
Surfaces 63
1 26.575364531836634 -46.029881598804927 0 -0.86602540378443871 0.49999999999999994 0 0.49999999999999994 0.86602540378443871 0 0 0 -1 
2 50.6103878792389 3.5527136788005009e-15 0 0 0 1 0.86602540378443871 0.49999999999999994 -0 0.49999999999999994 -0.86602540378443871 -0 2.2000000000000002
1 26.315556910701304 -45.879881598804928 0.29999999999999999 0.61237243569579491 -0.35355339059327417 -0.70710678118654702 0.5 0.8660254037844386 -1.9428902930940235e-16 -0.61237243569579425 0.35355339059327345 -0.70710678118654813 
1 -1.42596774273685e-15 -7.1298387136842498e-16 0 0 0 1 1 0 -0 -0 1 0 
1 -1.42596774273685e-15 -7.1298387136842498e-16 0 0 0 1 1 0 -0 -0 1 0 
1 -1.42596774273685e-15 -7.1298387136842498e-16 39.189999999999998 0 0 1 1 0 -0 -0 1 0 
1 -1.42596774273685e-15 -7.1298387136842498e-16 0 0 0 1 1 0 -0 -0 1 0 
1 -1.42596774273685e-15 -7.1298387136842498e-16 39.189999999999998 0 0 1 1 0 -0 -0 1 0 
1 26.575364531836634 -46.029881598804927 0 -1 0 0 0 0 1 0 1 -0 
1 -26.575364531836652 -46.02988159880492 0 1.3368447588157959e-16 1 -0 1 -1.3368447588157959e-16 0 0 -0 -1 
1 26.575364531836634 -46.029881598804927 0 0 1 0 -0 0 -1 1 -0 -0 
1 26.575400000000002 -45.029949999999999 39.189999999999998 0 -1 0 1 0 0 -0 0 1 
1 0 0 0 0 0 1 1 0 -0 -0 1 0 
1 26.575400000000002 -80.999949999999998 39.189999999999998 1 0 0 -0 1 0 0 -0 1 
1 53.150729063673253 0 0 -0.86602540378443871 -0.49999999999999994 0 -0.49999999999999994 0.86602540378443871 0 -0 0 -1 
3 50.6103878792389 3.5527136788005009e-15 0.59999999999999998 -0 -0 -1 0.86602540378443771 -0.50000000000000178 0 0.50000000000000178 0.86602540378443771 -0 2.2000000000000002
-0.7853981633974495
1 26.575364531836634 -46.329881598804931 0.29999999999999999 0 0.70710678118654668 -0.70710678118654835 1 5.5511151231257827e-17 5.5511151231257698e-17 7.850462293418866e-17 -0.70710678118654835 -0.70710678118654668 
1 -1.42596774273685e-15 -7.1298387136842498e-16 0 0 0 1 1 0 -0 -0 1 0 
1 -26.575364531836652 -46.02988159880492 39.189999999999998 -0 0 1 1 -1.3368447588157959e-16 0 1.3368447588157959e-16 1 0 
2 26.575364531836634 -46.029881598804927 0 -0 -1 -0 0 0 1 1 -0 -0 39.189999999999998
1 -26.575364531836652 -46.02988159880492 0 -0 0 1 1 -1.3368447588157959e-16 0 1.3368447588157959e-16 1 0 
1 -26.575364531836652 -76.02988159880492 0 1.3368447588157959e-16 1 -0 1 -1.3368447588157959e-16 0 0 -0 -1 
1 -26.575364531836652 -46.02988159880492 0 -1 0 0 0 0 1 0 1 -0 
1 -53.150729063673253 6.5090870220175646e-15 0 0.86602540378443882 0.49999999999999967 -0 0.49999999999999967 -0.86602540378443882 0 0 -0 -1 
2 -47.723636533290772 5.0679077845632065e-15 0 0 0 1 -0.8660254037844386 0.50000000000000022 0 -0.50000000000000022 -0.8660254037844386 0 4.7000000000000002
1 -26.575364531836616 46.029881598804934 0 0.8660254037844386 -0.50000000000000022 0 -0.50000000000000022 -0.8660254037844386 0 0 -0 -1 
1 -18.575364531836616 46.029881598804934 31.189999999999998 0.70710678118654757 0 -0.70710678118654757 0 1 0 -0.70710678118654757 0 -0.70710678118654757 
1 20.175364531836635 46.029881598804927 32.789999999999999 0.70710678118654757 0 0.70710678118654757 0 1 -0 0.70710678118654757 -0 -0.70710678118654757 
1 26.575364531836634 46.029881598804927 0 0 0 1 -1 1.3368447588157966e-16 0 -1.3368447588157966e-16 -1 0 
1 26.575364531836634 46.029881598804927 39.189999999999998 0 0 1 -1 1.3368447588157966e-16 0 -1.3368447588157966e-16 -1 0 
1 26.575364531836634 46.029881598804927 0 -1.3368447588157966e-16 -1 0 -1 1.3368447588157966e-16 0 -0 0 -1 
1 0 0 0 0 0 1 1 0 -0 -0 1 0 
1 -38 -20 39.189999999999998 0 -1 0 1 0 0 -0 0 1 
1 -22 -20 39.189999999999998 1 0 0 -0 1 0 0 -0 1 
1 -38 12 39.189999999999998 0 -1 0 1 0 0 -0 0 1 
1 -38 -20 39.189999999999998 1 0 0 -0 1 0 0 -0 1 
1 0 0 0 0 0 1 1 0 -0 -0 1 0 
1 -18 -70 39.189999999999998 0 -1 0 1 0 0 -0 0 1 
1 -18 -70 39.189999999999998 1 0 0 -0 1 0 0 -0 1 
1 18 -70 39.189999999999998 1 0 0 -0 1 0 0 -0 1 
1 -18 50 39.189999999999998 0 -1 0 1 0 0 -0 0 1 
2 36 2 39.189999999999998 0 0 1 1 0 -0 -0 1 0 10
1 -5.4697605301576938e-16 1.3876045329998488e-16 0 0 0 1 1 0 -0 -0 1 0 
1 52.255836146429338 0.95000000000000329 0.29999999999999999 0.6123724356957958 0.35355339059327445 -0.70710678118654613 -0.49999999999999989 0.8660254037844386 2.7755575615628907e-17 -0.61237243569579336 -0.35355339059327306 -0.70710678118654902 
1 26.575364531836634 46.029881598804927 0 1 -0 0 0 0 1 -0 -1 0 
1 65.16536453183663 -46.029881598804927 0 -0.70980807759358622 0 0.70439512560983664 -0 -1 0 0.70439512560983664 0 0.70980807759358622 
1 65.765364531836624 -75.729881598804937 0.29999999999999999 0 -0.7071067811865509 -0.70710678118654424 -1 9.6184904397676777e-17 -9.6184904397677689e-17 1.3602599629475471e-16 0.70710678118654424 -0.7071067811865509 
1 26.275364531836633 46.029881598804927 0.29999999999999999 -0.70710678118654668 0 0.70710678118654835 0 1 -0 0.70710678118654835 -0 0.70710678118654668 
1 -26.275364531836651 -46.02988159880492 0.29999999999999999 0.70710678118654668 0 0.70710678118654835 0 -1 0 0.70710678118654835 0 -0.70710678118654668 
1 26.575364531836634 75.729881598804937 0.29999999999999999 0 0.7071067811865509 -0.70710678118654424 -1 6.6842237940789216e-17 6.6842237940789845e-17 -9.4529199435234018e-17 -0.70710678118654424 -0.7071067811865509 
1 -51.534148309942303 -2.1999999999999926 0.29999999999999999 -0.61237243569579591 -0.35355339059327451 -0.70710678118654613 0.49999999999999989 -0.86602540378443882 1.6653345369377346e-16 0.61237243569579347 0.35355339059327284 -0.70710678118654902 
1 -26.275364531836615 46.029881598804934 0.29999999999999999 -0.70710678118654668 0 -0.70710678118654835 0 1 0 -0.70710678118654835 -0 0.70710678118654668 
3 -47.723636533290772 5.0679077845632065e-15 0.59999999999999998 -0 -0 -1 -0.86602540378443815 0.500000000000001 0 -0.500000000000001 -0.86602540378443815 0 4.7000000000000002
-0.7853981633974495
1 -26.315556910701289 45.879881598804943 0.29999999999999999 -0.61237243569579491 0.35355339059327412 -0.70710678118654713 -0.50000000000000011 -0.8660254037844386 5.5511151231257815e-17 0.61237243569579414 -0.35355339059327368 -0.70710678118654802 
1 26.575364531836634 -76.029881598804934 0 0 1 0 -0 0 -1 1 -0 -0 
1 -26.575364531836616 46.029881598804934 0 1 -0 0 0 0 1 -0 -1 0 
1 0 0 0 0 0 1 1 0 -0 -0 1 0 
1 -33 -11 27.789999999999999 0 1 0 1 0 0 0 0 -1 
1 -27 -11 27.789999999999999 -1 0 0 0 1 0 0 0 -1 
1 -33 2 27.789999999999999 0 1 0 1 0 0 0 0 -1 
1 -33 -11 27.789999999999999 -1 0 0 0 1 0 0 0 -1 
2 36 2 31.18 -0 -0 -1 1 0 0 -0 1 -0 2
1 -1.2819751242557092e-16 3.8218883405570515e-18 0 0 0 1 1 0 -0 -0 1 0 
Triangulations 0

TShapes 300
Ve
1e-07
52.5156437675647 -1.1 0.599999999999991
0 0

0101101
*
Ve
1e-07
52.5156437675647 -1.1 39.19
0 0

0101101
*
Ed
 1e-07 1 1 0
1  1 0 0.6 39.19
2  1 2 0 0.6 39.19
2  2 1 0 0.6 39.19
4 G1 2 0 1 0
0

0101000
+300 0 -299 0 *
Ve
0.0001
26.5753645318366 -46.0298815988049 0.6
0 0

0101101
*
Ed
 1e-07 1 1 0
1  2 0 -3.5527136788005e-15 51.8805584714561
2  3 3 0 -3.5527136788005e-15 51.8805584714561
2  4 1 0 -3.5527136788005e-15 51.8805584714561
0

0101000
+297 0 -300 0 *
Ve
1.5e-07
27.1526753095779 -45.02995 39.19
0 0

0101101
*
Ed
 1e-07 1 1 0
1  3 0 1.15462155548248 51.8805584714561
2  5 4 0 1.15462155548248 51.8805584714561
2  6 1 5 1.15462155548248 51.8805584714561
2  7 1 6 1.15462155548248 51.8805584714561
2  8 5 5 1.15462155548248 51.8805584714561
2  9 6 6 1.15462155548248 51.8805584714561
2  10 7 5 1.15462155548248 51.8805584714561
2  11 8 6 1.15462155548248 51.8805584714561
0

0101000
+295 6 -299 6 *
Ve
1e-07
26.5753645318366 -46.0298815988049 39.19
0 0

0101101
*
Ed
 1e-07 1 1 0
1  4 0 0.6 39.19
2  12 1 0 0.6 39.19
2  13 9 0 0.6 39.19
2  14 9 8 0.6 39.19
2  15 10 0 0.6 39.19
2  16 11 0 0.6 39.19
0

0101000
+297 0 -293 0 *
Ve
1.50000003552714e-07
27.1526753095779 -45.02995 25.51
0 0

0101101
*
Ed
 1.5e-07 1 1 0
1  5 0 5.915 19.595
2  17 1 0 5.915 19.595
2  18 12 0 5.915 19.595
0

0101000
+291 0 -295 0 *
Ve
1.5e-07
26.5754 -46.0298201661439 39.19
0 0

0101101
*
Ed
 1e-07 1 1 0
1  3 0 0 7.0936326737506e-05
2  5 4 0 0 7.0936326737506e-05
2  6 1 5 0 7.0936326737506e-05
2  7 1 6 0 7.0936326737506e-05
2  8 5 5 0 7.0936326737506e-05
2  9 6 6 0 7.0936326737506e-05
2  10 7 5 0 7.0936326737506e-05
2  11 8 6 0 7.0936326737506e-05
0

0101000
+293 6 -289 6 *
Ve
1.50000007105427e-07
26.5754 -46.0298201661439 25.51
0 0

0101101
*
Ed
 1.5e-07 1 1 0
1  6 0 1.92673742951153 3.08128804866727
2  19 1 0 1.92673742951153 3.08128804866727
2  20 13 13 1.92673742951153 3.08128804866727
0

0101000
+287 0 -291 0 *
Ed
 1.5e-07 1 1 0
1  7 0 -19.595 -5.915
2  21 1 0 -19.595 -5.915
2  22 14 0 -19.595 -5.915
0

0101000
+289 0 -287 0 *
Wi

0101100
-298 0 -296 0 +294 4 +292 0 +290 0 +288 4 +286 0 +285 0 *
Fa
0  1e-07 1 0

0101000
+284 0 *
Ve
1e-07
52.5156437675647 1.1 0.6
0 0

0101101
*
Ve
1e-07
52.5156437675647 1.1 39.19
0 0

0101101
*
Ed
 1e-07 1 1 0
1  8 0 0.6 39.19
2  23 2 0 0.6 39.19
2  24 15 0 0.6 39.19
4 G1 2 0 15 0
0

0101000
+282 0 -281 0 *
Ed
 1e-07 1 1 0
1  9 0 6.66133814775094e-16 1.0471975511966
2  25 16 0 6.66133814775094e-16 1.0471975511966
2  26 2 0 6.66133814775094e-16 1.0471975511966
0

0101000
+300 0 -282 0 *
Ed
 1e-07 1 1 0
1  10 0 4.18879020478639 5.23598775598299
2  27 2 0 4.18879020478639 5.23598775598299
2  28 8 0 4.18879020478639 5.23598775598299
0

0101000
+281 0 -299 0 *
Wi

0101100
-280 0 -279 0 -278 0 +298 0 *
Fa
0  0 2 0

0101000
+277 0 *
Ve
0.0001
25.5361340472953 -46.6298815988049 5.55111512312578e-16
0 0

0101101
*
Ed
 1e-07 1 1 0
1  11 0 -0.268328157299968 1.07331262919991
2  29 3 0 -0.268328157299968 1.07331262919991
2  30 17 0 -0.268328157299968 1.07331262919991
0

0101000
+297 0 -275 0 *
Ve
1e-07
51.996028525294 -0.800000000000004 -8.27116153345742e-15
0 0

0101101
*
Ed
 1e-07 1 1 0
1  12 0 -1.03923048454134 51.8805584714561
2  31 3 0 -1.03923048454134 51.8805584714561
2  32 18 0 -1.03923048454134 51.8805584714561
0

0101000
+275 0 -273 0 *
Ed
 1e-07 1 1 0
1  13 0 -0.424264068711928 0.424264068711928
2  33 3 0 -0.424264068711928 0.424264068711928
2  34 16 0 -0.424264068711928 0.424264068711928
4 G1 3 0 16 0
0

0101000
+300 0 -273 0 *
Wi

0101100
-274 0 +296 0 -272 0 +271 0 *
Fa
0  0 3 0

0101000
+270 0 *
Ve
1e-07
26.5753645318366 -76.0298815988049 39.19
0 0

0101101
*
Ed
 1e-07 1 1 0
1  14 0 0 30
2  35 19 0 0 30
2  36 9 0 0 30
2  37 8 0 0 30
2  38 20 0 0 30
0

0101000
+293 0 -268 0 *
Ve
1e-07
-26.5753645318367 -46.0298815988049 0
0 0

0101101
*
Ed
 1e-07 1 1 0
1  15 0 0 53.1507290636733
2  39 4 0 0 53.1507290636733
2  40 21 5 0 53.1507290636733
2  41 21 15 0 53.1507290636733
2  42 19 6 0 53.1507290636733
2  43 19 16 0 53.1507290636733
2  44 5 5 0 53.1507290636733
2  45 6 6 0 53.1507290636733
2  46 10 5 0 53.1507290636733
2  47 10 6 0 53.1507290636733
2  48 7 15 0 53.1507290636733
2  49 8 16 0 53.1507290636733
2  50 22 16 0 53.1507290636733
0

0101000
+266 0 -268 16 *
Ve
1e-07
-21.7123 17.985 0
0 0

0101101
*
Ed
 1e-07 1 1 0
1  16 0 16.9851298338561 17.985
2  51 13 0 16.9851298338561 17.985
2  52 14 18 16.9851298338561 17.985
2  53 14 19 16.9851298338561 17.985
2  54 8 18 16.9851298338561 17.985
0

0101000
+289 18 -264 0 *
Ed
 1e-07 1 1 0
1  17 0 0 30
2  55 19 0 0 30
2  56 23 0 0 30
2  57 8 0 0 30
0

0101000
+266 4 -266 14 *
Ed
 1e-07 1 1 0
1  18 0 -21.7123 -21.1350246904221
2  58 13 0 -21.7123 -21.1350246904221
2  59 12 18 -21.7123 -21.1350246904221
2  60 12 19 -21.7123 -21.1350246904221
2  61 8 18 -21.7123 -21.1350246904221
0

0101000
+264 0 -295 18 *
Ve
1e-07
-51.7939559310776 -2.34999999999999 39.19
0 0

0101101
*
Ed
 1e-07 1 1 0
1  19 0 2.71354626519124 53.1507290636732
2  62 4 0 2.71354626519124 53.1507290636732
2  63 5 5 2.71354626519124 53.1507290636732
2  64 6 6 2.71354626519124 53.1507290636732
2  65 24 5 2.71354626519124 53.1507290636732
2  66 24 6 2.71354626519124 53.1507290636732
2  67 7 5 2.71354626519124 53.1507290636732
2  68 8 6 2.71354626519124 53.1507290636732
0

0101000
+260 6 -266 0 *
Ve
1e-07
-51.7939559310776 2.35000000000001 39.19
0 0

0101101
*
Ed
 1e-07 1 1 0
1  20 0 4.18879020478639 5.23598775598299
2  69 25 0 4.18879020478639 5.23598775598299
2  70 8 0 4.18879020478639 5.23598775598299
0

0101000
+258 0 -260 0 *
Ve
0.0001
-10.5753645318366 73.742694519907 39.19
0 0

0101101
*
Ed
 1e-07 1 1 0
1  21 0 0 82.437182798482
2  71 8 0 0 82.437182798482
2  72 26 0 0 82.437182798482
0

0101000
+256 0 -258 0 *
Ve
0.0001
13.7753645318366 68.2001319356866 39.19
0 0

0101101
*
Ed
 1e-07 1 1 0
1  22 0 0 77.4805584714561
2  73 8 0 0 77.4805584714561
2  74 15 0 0 77.4805584714561
0

0101000
+281 0 -254 0 *
Ve
0.0001
-10.5753645318366 76.0298815988049 39.19
0 0

0101101
*
Ed
 1e-07 1 1 0
1  23 0 27.712812921102 30
2  75 27 0 27.712812921102 30
2  76 8 0 27.712812921102 30
0

0101000
+256 0 -252 0 *
Ve
0.0001
13.7753645318366 76.0298815988049 39.19
0 0

0101101
*
Ed
 1e-07 1 1 0
1  24 0 22.1702503368816 30
2  77 28 0 22.1702503368816 30
2  78 8 0 22.1702503368816 30
0

0101000
+254 0 -250 0 *
Ed
 1e-07 1 1 0
1  25 0 12.8 37.1507290636732
2  79 29 5 12.8 37.1507290636732
2  80 29 22 12.8 37.1507290636732
2  81 30 6 12.8 37.1507290636732
2  82 30 23 12.8 37.1507290636732
2  83 31 5 12.8 37.1507290636732
2  84 31 6 12.8 37.1507290636732
2  85 4 0 12.8 37.1507290636732
2  86 5 22 12.8 37.1507290636732
2  87 6 23 12.8 37.1507290636732
2  88 7 22 12.8 37.1507290636732
2  89 8 23 12.8 37.1507290636732
0

0101000
+250 23 -252 23 *
Wi

0101100
-267 0 +288 4 +265 14 +263 17 +262 0 +261 17 +259 4 +294 4 +257 0 -278 0 
+255 0 +253 0 -251 0 +249 0 +248 21 *
Ve
1e-07
-8 -16 0
0 0

0101101
*
Ve
1e-07
8 -16 0
0 0

0101101
*
Ed
 1e-07 1 1 0
1  26 0 -8 8
2  90 32 0 -8 8
2  91 33 28 -8 8
2  92 33 30 -8 8
2  93 8 28 -8 8
0

0101000
+246 0 -245 0 *
Ve
1e-07
8 16 0
0 0

0101101
*
Ed
 1e-07 1 1 0
1  27 0 -16 16
2  94 32 0 -16 16
2  95 34 28 -16 16
2  96 34 30 -16 16
2  97 8 28 -16 16
0

0101000
+245 0 -243 0 *
Ve
1e-07
-8 16 0
0 0

0101101
*
Ed
 1e-07 1 1 0
1  28 0 -8 8
2  98 32 0 -8 8
2  99 35 28 -8 8
2  100 35 30 -8 8
2  101 8 28 -8 8
0

0101000
+241 0 -243 0 *
Ed
 1e-07 1 1 0
1  29 0 -16 16
2  102 32 0 -16 16
2  103 36 28 -16 16
2  104 36 30 -16 16
2  105 8 28 -16 16
0

0101000
+246 0 -241 0 *
Wi

0101100
-244 27 -242 27 +240 27 +239 27 *
Ve
1e-07
-18 -60 0
0 0

0101101
*
Ve
1e-07
18 -60 0
0 0

0101101
*
Ed
 1e-07 1 1 0
1  30 0 -18 18
2  106 37 0 -18 18
2  107 38 35 -18 18
2  108 38 37 -18 18
2  109 8 35 -18 18
0

0101000
+237 0 -236 0 *
Ve
1e-07
-18 60 0
0 0

0101101
*
Ed
 1e-07 1 1 0
1  31 0 -60 60
2  110 37 0 -60 60
2  111 39 35 -60 60
2  112 39 37 -60 60
2  113 8 35 -60 60
0

0101000
+237 0 -234 0 *
Ve
1e-07
18 60 0
0 0

0101101
*
Ed
 1e-07 1 1 0
1  32 0 -60 60
2  114 37 0 -60 60
2  115 40 35 -60 60
2  116 40 37 -60 60
2  117 8 35 -60 60
0

0101000
+236 0 -232 0 *
Ed
 1e-07 1 1 0
1  33 0 -18 18
2  118 37 0 -18 18
2  119 41 35 -18 18
2  120 41 37 -18 18
2  121 8 35 -18 18
0

0101000
+234 0 -232 0 *
Wi

0101100
-235 34 +233 34 -231 34 +230 34 *
Ve
1e-07
10 0 0
0 0

0101101
*
Ed
 1e-07 1 1 0
1  34 0 0 6.28318530717959
2  122 42 42 0 6.28318530717959
2  123 42 44 0 6.28318530717959
2  124 43 0 0 6.28318530717959
2  125 8 42 0 6.28318530717959
0

0101100
+228 0 -228 0 *
Wi

0101100
-227 41 *
Fa
0  1e-07 8 0

0101000
+247 0 +238 0 +229 0 +226 0 *
Ve
0.0001
65.7607712542378 -46.0298815988049 0.600000000000001
0 0

0101101
*
Ve
1.5e-07
56.3259275517191 -46.0298815988049 25.51
0 0

0101101
*
Ed
 1e-07 1 1 0
1  35 0 0.861985666874882 1.55548570055941
2  126 20 0 0.861985666874882 1.55548570055941
2  127 11 0 0.861985666874882 1.55548570055941
0

0101000
-224 0 +223 0 *
Ed
 1e-07 1 1 0
1  36 0 0 39.1854067224011
2  128 17 0 0 39.1854067224011
2  129 11 0 0 39.1854067224011
0

0101000
+297 0 -224 0 *
Ve
1.5e-07
26.5754 -46.0298815988049 25.51
0 0

0101101
*
Ed
 1.5e-07 1 1 0
1  37 0 -18.8943952858008 10.8561322659183
2  130 11 0 -18.8943952858008 10.8561322659183
2  131 13 13 -18.8943952858008 10.8561322659183
0

0101000
+223 0 -220 0 *
Ve
1.50008030943651e-07
26.5754000000002 -46.0298815988049 39.189999999992
0 0

0101101
*
Ed
 1.5e-07 1 1 0
1  38 0 5.915 19.595
2  132 11 0 5.915 19.595
2  133 14 0 5.915 19.595
0

0101000
+220 0 -218 0 *
Ed
 1e-07 1 1 0
1  35 0 0 9.05030965516908e-07
2  126 20 0 0 9.05030965516908e-07
2  127 11 0 0 9.05030965516908e-07
0

0101000
+293 0 -218 0 *
Wi

0101100
-222 0 +221 0 +219 0 -292 0 +217 0 -216 0 *
Fa
0  1e-07 11 0

0101000
+215 0 *
Ed
 1e-07 1 1 0
1  18 0 -21.7123 -21.1350246904221
2  58 13 0 -21.7123 -21.1350246904221
2  59 12 18 -21.7123 -21.1350246904221
2  60 12 19 -21.7123 -21.1350246904221
0

0101000
+264 0 -291 19 *
Ed
 1e-07 1 1 0
1  39 0 0 13.68
2  134 14 0 0 13.68
2  135 12 0 0 13.68
0

0101000
+264 17 -264 13 *
Wi

0101100
-261 17 +290 0 +213 13 +212 0 *
Fa
0  1e-07 12 0

0101000
+211 0 *
Ed
 1e-07 1 1 0
1  16 0 16.9851298338561 17.985
2  51 13 0 16.9851298338561 17.985
2  52 14 18 16.9851298338561 17.985
2  53 14 19 16.9851298338561 17.985
0

0101000
+287 19 -264 0 *
Wi

0101100
-209 13 -213 13 +286 0 *
Fa
0  1e-07 13 13

0101000
+208 0 *
Wi

0101100
-263 17 -212 0 +209 13 +285 0 *
Fa
0  1e-07 14 0

0101000
+206 0 *
Ve
0.0001
26.5753645318366 46.0298815988049 0.599999999999996
0 0

0101101
*
Ed
 1e-07 1 1 0
1  40 0 0 51.8805584714561
2  136 44 0 0 51.8805584714561
2  137 15 0 0 51.8805584714561
0

0101000
+282 0 -204 0 *
Ve
0.0001
26.5753645318366 46.0298815988049 26.39
0 0

0101101
*
Ed
 1e-07 1 1 0
1  41 0 0.6 26.39
2  138 15 0 0.6 26.39
2  139 45 0 0.6 26.39
2  140 45 45 0.6 26.39
2  141 31 0 0.6 26.39
0

0101000
+204 0 -202 0 *
Ed
 1e-07 1 1 0
1  42 0 -55.430215141429 -26.8085450294316
2  142 28 0 -55.430215141429 -26.8085450294316
2  143 15 0 -55.430215141429 -26.8085450294316
0

0101000
+254 0 -202 0 *
Wi

0101100
+280 0 -203 0 +253 0 -201 0 +200 0 *
Fa
0  1e-07 15 0

0101000
+199 0 *
Ve
1e-07
51.996028525294 0.800000000000001 6.66133814775094e-16
0 0

0101101
*
Ed
 1e-07 1 1 0
1  43 0 6.66133814775094e-16 1.0471975511966
2  144 16 0 6.66133814775094e-16 1.0471975511966
2  145 18 0 6.66133814775094e-16 1.0471975511966
0

0101000
+273 0 -197 0 *
Ed
 1e-07 1 1 0
1  44 0 0 0.848528137423857
2  146 16 0 0 0.848528137423857
2  147 44 0 0 0.848528137423857
4 G1 16 0 44 0
0

0101000
+282 0 -197 0 *
Wi

0101100
-271 0 +279 0 -196 0 +195 0 *
Fa
0  0 16 0

0101000
+194 0 *
Ve
0.0001
65.1653645318366 -46.6298815988049 -1.94289029309402e-15
0 0

0101101
*
Ed
 1e-07 1 1 0
1  45 0 -1.03923048454133 38.59
2  148 17 0 -1.03923048454133 38.59
2  149 18 0 -1.03923048454133 38.59
0

0101000
+275 0 -192 0 *
Ed
 1e-07 1 1 0
1  46 0 -11.7724116591008 -10.7358312533783
2  150 17 0 -11.7724116591008 -10.7358312533783
2  151 46 0 -11.7724116591008 -10.7358312533783
0

0101000
+224 0 -192 0 *
Wi

0101100
-274 0 +221 0 -191 0 +190 0 *
Fa
0  0 17 0

0101000
+189 0 *
Ve
0.0001
65.1653645318366 -75.4298815988049 -8.88178419700125e-16
0 0

0101101
*
Ed
 1e-07 1 1 0
1  47 0 0.600000000000009 29.4
2  152 46 0 0.600000000000009 29.4
2  153 18 0 0.600000000000009 29.4
0

0101000
+192 0 -187 0 *
Ve
0.0001
25.9753645318366 45.8691120833463 1.38777878078145e-15
0 0

0101101
*
Ed
 1e-07 1 1 0
1  48 0 0 52.0413279869148
2  154 44 0 0 52.0413279869148
2  155 18 0 0 52.0413279869148
0

0101000
+197 0 -185 0 *
Ve
0.0001
-25.9753645318366 -75.4298815988049 -9.65894031423886e-15
0 0

0101101
*
Ed
 1e-07 1 1 0
1  49 0 0.599999999999994 91.7407290636733
2  156 47 0 0.599999999999994 91.7407290636733
2  157 18 0 0.599999999999994 91.7407290636733
0

0101000
+187 0 -183 0 *
Ve
0.0001
25.9753645318366 75.4298815988049 -7.7715611723761e-16
0 0

0101101
*
Ed
 1e-07 1 1 0
1  50 0 -0.160769515458661 29.4
2  158 48 0 -0.160769515458661 29.4
2  159 18 0 -0.160769515458661 29.4
0

0101000
+185 0 -181 0 *
Ve
0.0001
-25.9753645318367 -45.8691120833462 9.43689570931383e-16
0 0

0101101
*
Ed
 1e-07 1 1 0
1  51 0 -0.160769515458686 29.4
2  160 49 0 -0.160769515458686 29.4
2  161 18 0 -0.160769515458686 29.4
0

0101000
+179 0 -183 0 *
Ve
0.0001
-25.9753645318366 75.4298815988049 2.66453525910038e-15
0 0

0101101
*
Ed
 1e-07 1 1 0
1  52 0 0.600000000000001 52.5507290636732
2  162 50 0 0.600000000000001 52.5507290636732
2  163 18 0 0.600000000000001 52.5507290636732
0

0101000
+181 0 -177 0 *
Ve
1e-07
-51.274340688807 -2.04999999999999 6.66133814775094e-16
0 0

0101101
*
Ed
 1e-07 1 1 0
1  53 0 3.5527136788005e-15 50.5979523139407
2  164 51 0 3.5527136788005e-15 50.5979523139407
2  165 18 0 3.5527136788005e-15 50.5979523139407
0

0101000
+175 0 -179 0 *
Ve
0.0001
-25.9753645318366 45.8691120833463 3.88578058618805e-16
0 0

0101101
*
Ed
 1e-07 1 1 0
1  54 0 -0.16076951545865 29.4
2  166 52 0 -0.16076951545865 29.4
2  167 18 0 -0.16076951545865 29.4
0

0101000
+173 0 -177 0 *
Ve
1e-07
-51.274340688807 2.05 1.77635683940025e-15
0 0

0101101
*
Ed
 1e-07 1 1 0
1  55 0 8.88178419700125e-16 1.0471975511966
2  168 53 0 8.88178419700125e-16 1.0471975511966
2  169 18 0 8.88178419700125e-16 1.0471975511966
0

0101000
+171 0 -175 0 *
Ed
 1e-07 1 1 0
1  56 0 -0.160769515458689 50.437182798482
2  170 54 0 -0.160769515458689 50.437182798482
2  171 18 0 -0.160769515458689 50.437182798482
0

0101000
+173 0 -171 0 *
Wi

0101100
+272 0 -191 0 +196 0 -186 0 +184 0 -182 0 +180 0 +178 0 +176 0 +174 0 
-172 0 +170 0 +169 0 *
Fa
0  0 18 0

0101000
+168 0 *
Ve
1.50008030943651e-07
26.5754000000002 -76.0298815988049 39.189999999992
0 0

0101101
*
Ed
 1e-07 1 1 0
1  57 0 0 9.05030965516908e-07
2  172 20 0 0 9.05030965516908e-07
2  173 55 0 0 9.05030965516908e-07
2  174 22 0 0 9.05030965516908e-07
0

0101000
+268 0 -166 0 *
Ed
 1.00016051160401e-07 1 1 0
1  16 0 -13.0149315988049 16.9850684011951
2  51 13 0 -13.0149315988049 16.9850684011951
2  52 14 18 -13.0149315988049 16.9850684011951
2  53 14 19 -13.0149315988049 16.9850684011951
2  175 20 18 -13.0149315988049 16.9850684011951
0

0101000
+166 18 -218 18 *
Wi

0101100
-267 0 -165 0 -164 17 +216 0 *
Fa
0  1e-07 20 0

0101000
+163 0 *
Ve
0.0001
65.7607712542378 -76.0298815988049 0.599999999999996
0 0

0101101
*
Ve
1.5e-07
56.3259275517191 -76.0298815988049 25.51
0 0

0101101
*
Ed
 1e-07 1 1 0
1  57 0 0.861985666874882 1.55548570055941
2  172 20 0 0.861985666874882 1.55548570055941
2  173 55 0 0.861985666874882 1.55548570055941
2  174 22 0 0.861985666874882 1.55548570055941
0

0101000
-161 0 +160 0 *
Ve
0.0001
-26.5753645318367 -76.0298815988049 0.599999999999987
0 0

0101101
*
Ed
 1e-07 1 1 0
1  58 0 0.00459327759887174 92.3407290636733
2  176 47 0 0.00459327759887174 92.3407290636733
2  177 22 0 0.00459327759887174 92.3407290636733
0

0101000
+161 0 -158 0 *
Ve
1.5e-07
26.5754 -76.0298815988049 25.51
0 0

0101101
*
Ed
 1.5e-07 1 1 0
1  59 0 15.7192322659183 45.4697598176375
2  178 22 0 15.7192322659183 45.4697598176375
2  179 13 13 15.7192322659183 45.4697598176375
0

0101000
+156 0 -160 0 *
Ed
 1e-07 1 1 0
1  60 0 0.599999999999996 39.19
2  180 23 0 0.599999999999996 39.19
2  181 23 8 0.599999999999996 39.19
2  182 10 0 0.599999999999996 39.19
2  183 24 0 0.599999999999996 39.19
2  184 22 8 0.599999999999996 39.19
0

0101000
+158 8 -266 4 *
Ed
 1.5e-07 1 1 0
1  61 0 -19.595 -5.915
2  185 22 0 -19.595 -5.915
2  186 14 0 -19.595 -5.915
0

0101000
+166 0 -156 0 *
Wi

0101100
+159 0 +157 0 +155 0 +154 7 +153 0 +265 14 +165 0 *
Fa
0  1e-07 22 0

0101000
+152 0 *
Ve
0.0001
-26.5753645318367 -46.0298815988049 0.599999999999999
0 0

0101101
*
Ed
 1e-07 1 1 0
1  60 0 0.6 39.19
2  180 23 0 0.6 39.19
2  181 23 8 0.6 39.19
2  182 10 0 0.6 39.19
2  183 24 0 0.6 39.19
0

0101000
+150 0 -266 4 *
Ed
 1e-07 1 1 0
1  62 0 -0 30
2  187 49 0 -0 30
2  188 23 0 -0 30
0

0101000
+150 0 -158 0 *
Wi

0101100
-149 0 +148 0 -262 0 +154 7 *
Fa
0  1e-07 23 0

0101000
+147 0 *
Ve
1e-07
-51.7939559310776 -2.34999999999999 0.6
0 0

0101101
*
Ed
 1e-07 1 1 0
1  63 0 0.6 39.19
2  189 25 0 0.6 39.19
2  190 24 0 0.6 39.19
4 G1 25 0 24 0
0

0101000
+145 0 -260 0 *
Ed
 1e-07 1 1 0
1  64 0 3.5527136788005e-15 50.437182798482
2  191 51 0 3.5527136788005e-15 50.437182798482
2  192 24 0 3.5527136788005e-15 50.437182798482
0

0101000
+145 0 -150 0 *
Wi

0101100
+144 0 -143 0 +259 4 -149 0 *
Fa
0  1e-07 24 0

0101000
+142 0 *
Ve
1e-07
-51.7939559310776 2.35 0.599999999999996
0 0

0101101
*
Ed
 1e-07 1 1 0
1  65 0 0.6 39.19
2  193 25 0 0.6 39.19
2  194 26 0 0.6 39.19
4 G1 25 0 26 0
0

0101000
+140 0 -258 0 *
Ed
 1e-07 1 1 0
1  66 0 8.88178419700125e-16 1.0471975511966
2  195 53 0 8.88178419700125e-16 1.0471975511966
2  196 25 0 8.88178419700125e-16 1.0471975511966
0

0101000
+140 0 -145 0 *
Wi

0101100
-139 0 +138 0 -257 0 +144 0 *
Fa
0  0 25 0

0101000
+137 0 *
Ve
0.0001
-26.5753645318366 46.0298815988049 0.599999999999995
0 0

0101101
*
Ve
0.0001
-26.5753645318366 46.0298815988049 23.19
0 0

0101101
*
Ed
 1e-07 1 1 0
1  67 0 0.6 23.19
2  197 31 0 0.6 23.19
2  198 56 0 0.6 23.19
2  199 56 45 0.6 23.19
2  200 26 0 0.6 23.19
0

0101000
+135 0 -134 0 *
Ed
 1e-07 1 1 0
1  68 0 7.105427357601e-15 50.437182798482
2  201 54 0 7.105427357601e-15 50.437182798482
2  202 26 0 7.105427357601e-15 50.437182798482
0

0101000
+135 0 -140 0 *
Ed
 1e-07 1 1 0
1  69 0 -37.384820515819 -1.60773287582235
2  203 27 0 -37.384820515819 -1.60773287582235
2  204 26 0 -37.384820515819 -1.60773287582235
0

0101000
+256 0 -134 0 *
Wi

0101100
+133 0 -132 0 -131 0 -139 0 +255 0 *
Fa
0  1e-07 26 0

0101000
+130 0 *
Ve
0.0001
-26.5753645318366 76.0298815988049 23.19
0 0

0101101
*
Ed
 1e-07 1 1 0
1  70 0 -0 30
2  205 27 0 -0 30
2  206 56 0 -0 30
0

0101000
+134 0 -128 0 *
Ed
 1e-07 1 1 0
1  71 0 -6.37784540336902 16.2495715946005
2  207 27 0 -6.37784540336902 16.2495715946005
2  208 31 20 -6.37784540336902 16.2495715946005
0

0101000
+252 0 -128 0 *
Wi

0101100
-131 0 +251 0 -127 0 +126 0 *
Fa
0  0 27 0

0101000
+125 0 *
Ve
0.0001
26.5753645318366 76.0298815988049 26.39
0 0

0101101
*
Ed
 1e-07 1 1 0
1  72 0 -0 30
2  209 28 0 -0 30
2  210 45 0 -0 30
0

0101000
+202 0 -123 0 *
Ed
 1e-07 1 1 0
1  73 0 -22.9067241765382 -4.80479057816259
2  211 28 0 -22.9067241765382 -4.80479057816259
2  212 31 20 -22.9067241765382 -4.80479057816259
0

0101000
+250 0 -123 0 *
Wi

0101100
-200 0 +249 0 -122 0 +121 0 *
Fa
0  0 28 0

0101000
+120 0 *
Ve
0.0001
26.5753645318366 76.0298815988049 0.599999999999996
0 0

0101101
*
Ed
 1e-07 1 1 0
1  41 0 0.6 26.39
2  138 15 0 0.6 26.39
2  139 45 0 0.6 26.39
2  140 45 45 0.6 26.39
2  141 31 0 0.6 26.39
0

0101000
+118 45 -123 45 *
Ve
0.0001
-26.5753645318366 76.0298815988049 0.599999999999999
0 0

0101101
*
Ed
 1e-07 1 1 0
1  74 0 0 53.1507290636733
2  213 50 0 0 53.1507290636733
2  214 31 20 0 53.1507290636733
0

0101000
+118 0 -116 0 *
Ed
 1e-07 1 1 0
1  67 0 0.6 23.19
2  197 31 0 0.6 23.19
2  198 56 0 0.6 23.19
2  199 56 45 0.6 23.19
2  200 26 0 0.6 23.19
0

0101000
+116 45 -128 45 *
Wi

0101100
+117 20 -115 0 -121 0 -114 20 +248 21 +126 0 *
Fa
0  1e-07 31 0

0101000
+113 45 *
Ed
 1e-07 1 1 0
1  75 0 0 11.4
2  215 36 0 0 11.4
2  216 33 0 0 11.4
0

0101000
+246 27 -246 46 *
Ed
 1e-07 1 1 0
1  76 0 0 11.4
2  217 33 0 0 11.4
2  218 34 0 0 11.4
0

0101000
+245 27 -245 46 *
Wi

0101100
+111 0 -110 0 -244 27 +244 46 *
Fa
0  1e-07 33 0

0101000
+109 0 *
Ed
 1e-07 1 1 0
1  77 0 0 11.4
2  219 34 0 0 11.4
2  220 35 0 0 11.4
0

0101000
+243 27 -243 46 *
Wi

0101100
+110 0 -107 0 -242 27 +242 46 *
Fa
0  1e-07 34 0

0101000
+106 0 *
Ed
 1e-07 1 1 0
1  78 0 0 11.4
2  221 36 0 0 11.4
2  222 35 0 0 11.4
0

0101000
+241 27 -241 46 *
Wi

0101100
+104 0 -107 0 -240 27 +240 46 *
Fa
0  1e-07 35 0

0101000
+103 0 *
Wi

0101100
+111 0 -104 0 -239 27 +239 46 *
Fa
0  1e-07 36 0

0101000
+101 0 *
Ed
 1e-07 1 1 0
1  79 0 0 10.82
2  223 39 0 0 10.82
2  224 38 0 0 10.82
0

0101000
+237 34 -237 47 *
Ed
 1e-07 1 1 0
1  80 0 0 10.82
2  225 40 0 0 10.82
2  226 38 0 0 10.82
0

0101000
+236 34 -236 47 *
Wi

0101100
+99 0 -98 0 -235 34 +235 47 *
Fa
0  1e-07 38 0

0101000
+97 0 *
Ed
 1e-07 1 1 0
1  81 0 0 10.82
2  227 41 0 0 10.82
2  228 39 0 0 10.82
0

0101000
+234 34 -234 47 *
Wi

0101100
+99 0 -95 0 -233 34 +233 47 *
Fa
0  1e-07 39 0

0101000
+94 0 *
Ed
 1e-07 1 1 0
1  82 0 0 10.82
2  229 40 0 0 10.82
2  230 41 0 0 10.82
0

0101000
+232 34 -232 47 *
Wi

0101100
+98 0 -92 0 -231 34 +231 47 *
Fa
0  1e-07 40 0

0101000
+91 0 *
Wi

0101100
+95 0 -92 0 -230 34 +230 47 *
Fa
0  1e-07 41 0

0101000
+89 0 *
Ed
 1e-07 1 1 0
1  83 0 0 8.01
3  231 232CN 42 0 0 8.01
0

0101000
+228 41 -228 48 *
Wi

0101100
+87 0 -87 0 -227 41 +227 48 *
Fa
0  1e-07 42 0

0101000
+86 0 *
Ed
 1e-07 1 1 0
1  84 0 0 30
2  233 46 0 0 30
2  234 20 0 0 30
0

0101000
+224 0 -161 0 *
Ed
 1e-07 1 1 0
1  85 0 -0 30
2  235 20 0 -0 30
2  236 13 13 -0 30
0

0101000
+223 0 -160 0 *
Wi

0101100
-159 0 +84 0 -83 0 +222 0 *
Fa
0  1e-07 20 0

0101000
+82 0 *
Ed
 1e-07 1 1 0
1  16 0 -13.0149315988049 16.9850684011951
2  51 13 0 -13.0149315988049 16.9850684011951
2  52 14 18 -13.0149315988049 16.9850684011951
2  53 14 19 -13.0149315988049 16.9850684011951
0

0101000
+156 19 -220 19 *
Wi

0101100
-80 13 +219 0 -83 0 +155 0 *
Fa
0  1e-07 13 13

0101000
+79 0 *
Wi

0101100
-164 17 +217 0 +80 13 +153 0 *
Fa
0  1e-07 14 0

0101000
+77 0 *
Ed
 1e-07 1 1 0
1  86 0 4.41211110532047 5.27573535063832
2  237 44 0 4.41211110532047 5.27573535063832
2  238 48 0 4.41211110532047 5.27573535063832
0

0101000
+204 0 -185 0 *
Wi

0101100
-195 0 +203 0 -184 0 +75 0 *
Fa
0  0 44 0

0101000
+74 0 *
Ed
 1e-07 1 1 0
1  87 0 -0 30
2  239 48 0 -0 30
2  240 45 0 -0 30
0

0101000
+204 0 -118 0 *
Wi

0101100
-201 0 +72 0 -122 0 +117 20 *
Fa
0  1e-07 45 0

0101000
+71 0 *
Ed
 1e-07 1 1 0
1  88 0 -9.19923647533799 -8.16265606961544
2  241 47 0 -9.19923647533799 -8.16265606961544
2  242 46 0 -9.19923647533799 -8.16265606961544
0

0101000
+161 0 -187 0 *
Wi

0101100
+190 0 -84 0 +186 0 -69 0 *
Fa
0  0 46 0

0101000
+68 0 *
Ed
 1e-07 1 1 0
1  89 0 -35.6631365903973 -34.6239061058559
2  243 47 0 -35.6631365903973 -34.6239061058559
2  244 49 0 -35.6631365903973 -34.6239061058559
0

0101000
+158 0 -183 0 *
Wi

0101100
-69 0 +157 0 -182 0 +66 0 *
Fa
0  0 47 0

0101000
+65 0 *
Ed
 1e-07 1 1 0
1  90 0 -9.0066641993581 -7.96743371481678
2  245 50 0 -9.0066641993581 -7.96743371481678
2  246 48 0 -9.0066641993581 -7.96743371481678
0

0101000
+118 0 -181 0 *
Wi

0101100
+75 0 -72 0 +180 0 -63 0 *
Fa
0  0 48 0

0101000
+62 0 *
Ed
 1e-07 1 1 0
1  91 0 4.27776401581543 5.14138826113327
2  247 49 0 4.27776401581543 5.14138826113327
2  248 51 0 4.27776401581543 5.14138826113327
0

0101000
+150 0 -179 0 *
Wi

0101100
-60 0 +148 0 -178 0 +66 0 *
Fa
0  0 49 0

0101000
+59 0 *
Ed
 1e-07 1 1 0
1  92 0 -24.3499580656265 -23.3107275810852
2  249 50 0 -24.3499580656265 -23.3107275810852
2  250 52 0 -24.3499580656265 -23.3107275810852
0

0101000
+116 0 -177 0 *
Wi

0101100
-63 0 +115 0 -176 0 +57 0 *
Fa
0  0 50 0

0101000
+56 0 *
Ed
 1e-07 1 1 0
1  93 0 0 0.848528137423857
2  251 53 0 0 0.848528137423857
2  252 51 0 0 0.848528137423857
4 G1 53 0 51 0
0

0101000
+145 0 -175 0 *
Wi

0101100
-54 0 +143 0 -174 0 +60 0 *
Fa
0  0 51 0

0101000
+53 0 *
Ed
 1e-07 1 1 0
1  94 0 -0.416847954364115 0.446776290953727
2  253 54 0 -0.416847954364115 0.446776290953727
2  254 52 0 -0.416847954364115 0.446776290953727
0

0101000
+135 0 -173 0 *
Ed
 1e-07 1 1 0
1  95 0 -0 30
2  255 52 0 -0 30
2  256 56 0 -0 30
0

0101000
+135 0 -116 0 *
Wi

0101100
+51 0 -50 0 +172 0 -57 0 *
Fa
0  0 52 0

0101000
+49 0 *
Ed
 1e-07 1 1 0
1  96 0 -0.424264068711921 0.424264068711928
2  257 54 0 -0.424264068711921 0.424264068711928
2  258 53 0 -0.424264068711921 0.424264068711928
4 G1 54 0 53 0
0

0101000
+140 0 -171 0 *
Wi

0101100
-47 0 +138 0 -170 0 +54 0 *
Fa
0  0 53 0

0101000
+46 0 *
Wi

0101100
-51 0 +132 0 -169 0 +47 0 *
Fa
0  0 54 0

0101000
+44 0 *
Wi

0101100
-133 0 +50 0 -127 0 +114 20 *
Fa
0  1e-07 56 0

0101000
+42 0 *
Wi

0101100
-239 46 +244 46 -240 46 +242 46 *
Ve
1e-07
-3 -6.5 0
0 0

0101101
*
Ve
1e-07
3 -6.5 0
0 0

0101101
*
Ed
 1e-07 1 1 0
1  97 0 -3 3
2  259 57 0 -3 3
2  260 58 53 -3 3
2  261 58 55 -3 3
2  262 32 56 -3 3
0

0101000
+39 0 -38 0 *
Ve
1e-07
3 6.5 0
0 0

0101101
*
Ed
 1e-07 1 1 0
1  98 0 -6.5 6.5
2  263 57 0 -6.5 6.5
2  264 59 53 -6.5 6.5
2  265 59 55 -6.5 6.5
2  266 32 56 -6.5 6.5
0

0101000
+38 0 -36 0 *
Ve
1e-07
-3 6.5 0
0 0

0101101
*
Ed
 1e-07 1 1 0
1  99 0 -3 3
2  267 57 0 -3 3
2  268 60 53 -3 3
2  269 60 55 -3 3
2  270 32 56 -3 3
0

0101000
+34 0 -36 0 *
Ed
 1e-07 1 1 0
1  100 0 -6.5 6.5
2  271 57 0 -6.5 6.5
2  272 61 53 -6.5 6.5
2  273 61 55 -6.5 6.5
2  274 32 56 -6.5 6.5
0

0101000
+39 0 -34 0 *
Wi

0101100
-37 52 -35 52 +33 52 +32 52 *
Fa
0  1e-07 32 46

0101000
+40 0 +31 0 *
Wi

0101100
-233 0 +235 0 +231 0 -230 0 *
Fa
0  1e-07 37 0

0101000
+29 0 *
Wi

0101100
+227 48 *
Ve
1e-07
2 0 0
0 0

0101101
*
Ed
 1e-07 1 1 0
1  101 0 0 6.28318530717959
2  275 62 61 0 6.28318530717959
2  276 62 63 0 6.28318530717959
2  277 63 0 0 6.28318530717959
2  278 43 64 0 6.28318530717959
0

0101100
+26 0 -26 0 *
Wi

0101100
-25 60 *
Fa
0  1e-07 43 48

0101000
+27 0 +24 0 *
Ed
 1e-07 1 1 0
1  102 0 0 17.32
2  279 61 0 0 17.32
2  280 58 0 0 17.32
0

0101000
+39 52 -39 65 *
Ed
 1e-07 1 1 0
1  103 0 0 17.32
2  281 58 0 0 17.32
2  282 59 0 0 17.32
0

0101000
+38 52 -38 65 *
Wi

0101100
+22 0 -21 0 -37 52 +37 65 *
Fa
0  1e-07 58 0

0101000
+20 0 *
Ed
 1e-07 1 1 0
1  104 0 0 17.32
2  283 59 0 0 17.32
2  284 60 0 0 17.32
0

0101000
+36 52 -36 65 *
Wi

0101100
+21 0 -18 0 -35 52 +35 65 *
Fa
0  1e-07 59 0

0101000
+17 0 *
Ed
 1e-07 1 1 0
1  105 0 0 17.32
2  285 61 0 0 17.32
2  286 60 0 0 17.32
0

0101000
+34 52 -34 65 *
Wi

0101100
+15 0 -18 0 -33 52 +33 65 *
Fa
0  1e-07 60 0

0101000
+14 0 *
Wi

0101100
+22 0 -15 0 -32 52 +32 65 *
Fa
0  1e-07 61 0

0101000
+12 0 *
Ed
 1e-07 1 1 0
1  106 0 0 2.89
3  287 288CN 62 0 0 2.89
0

0101000
+26 60 -26 66 *
Wi

0101100
+10 0 -10 0 -25 60 +25 66 *
Fa
0  1e-07 62 0

0101000
+9 0 *
Wi

0101100
-32 0 +37 0 +35 0 -33 0 *
Fa
0  1e-07 57 0

0101000
+7 0 *
Wi

0101100
+25 0 *
Fa
0  1e-07 63 0

0111000
+5 0 *
Sh

0101100
-283 0 -276 0 -269 0 +225 0 -214 0 +210 0 +207 0 +205 0 -198 0 -193 0 
+188 0 -167 0 -162 0 -151 0 +146 0 -141 0 +136 0 -129 0 +124 0 -119 0 
-112 20 -108 0 -105 0 +102 0 +100 0 -96 0 +93 0 -90 0 +88 0 -85 0 
-81 0 +78 0 +76 0 -73 0 +70 0 -67 0 +64 0 +61 0 -58 0 -55 0 
-52 0 -48 0 -45 0 -43 0 -41 0 +30 0 +28 47 +23 0 -19 0 -16 0 
+13 0 +11 0 -8 0 +6 65 +4 66 *
So

0100000
+3 0 *
Co

1100000
+2 0 *

+1 0 